<svg xmlns="http://www.w3.org/2000/svg" xml:space="preserve" id="Layer_1" x="0" y="0" style="enable-background:new 0 0 72 90" viewBox="0 0 72 90"><style>.st97{fill:none}.st110{fill:#fff}</style><switch><g><path d="M36.2 13S48 17.9 56 32.2 67 59 61.1 73.4z" style="fill:#d0d2d3"/><linearGradient id="SVGID_3_" x1="35.973" x2="35.973" y1="80.889" y2="8.889" gradientUnits="userSpaceOnUse"><stop offset="0" style="stop-color:#e3e3e3"/><stop offset=".487" style="stop-color:#eee"/><stop offset="1" style="stop-color:#f5f5f5"/></linearGradient><path d="M56 34c10.5 19.1 11 39.2-.3 45.2-10.7 5.7-29.6-3.5-40.1-22.5s-10.1-39.8 1.1-46S45.5 15 56 34" style="fill:url(#SVGID_3_)"/><radialGradient id="SVGID_4_" cx="39.069" cy="23.66" r="74.337" gradientTransform="rotate(59.087 32.04 19.676)scale(1 .6632)" gradientUnits="userSpaceOnUse"><stop offset=".41" style="stop-color:#f1f1f2;stop-opacity:0"/><stop offset=".556" style="stop-color:#eaebec;stop-opacity:.348"/><stop offset=".766" style="stop-color:#d7d9da;stop-opacity:.8471"/><stop offset=".831" style="stop-color:#d0d2d3"/></radialGradient><path d="M56 34c10.5 19.1 11 39.2-.3 45.2-10.7 5.7-29.6-3.5-40.1-22.5s-10.1-39.8 1.1-46S45.5 15 56 34" style="fill:url(#SVGID_4_)"/><g style="opacity:.81"><linearGradient id="SVGID_5_" x1="21.222" x2="31.804" y1="59.679" y2="41.35" gradientUnits="userSpaceOnUse"><stop offset="0" style="stop-color:#fcfcfc"/><stop offset=".216" style="stop-color:#f9f9f9"/><stop offset=".407" style="stop-color:#eee"/><stop offset=".59" style="stop-color:#dcdcdc"/><stop offset=".766" style="stop-color:#c2c2c2"/><stop offset=".937" style="stop-color:#a2a2a2"/><stop offset="1" style="stop-color:#949494"/></linearGradient><path d="M33.9 46.4c4 7.2 4.2 14.8 0 17.1-4 2.1-11.1-1.4-15.1-8.6s-3.8-15.1.4-17.4c4.1-2.3 10.7 1.7 14.7 8.9" style="fill:url(#SVGID_5_)"/></g><linearGradient id="SVGID_6_" x1="33.598" x2="20.35" y1="61.892" y2="38.947" gradientUnits="userSpaceOnUse"><stop offset=".02" style="stop-color:#87898b"/><stop offset=".166" style="stop-color:#a0a2a4"/><stop offset=".188" style="stop-color:#a3a5a6"/><stop offset=".738" style="stop-color:#dfe0e1"/><stop offset="1" style="stop-color:#f7f7f8"/></linearGradient><path d="M33.8 46.3c3.1 5.2 3.7 13.3-.1 15.5s-10.2-1.3-13.8-7.6-3.4-13.1.5-15.3 9.8 1.4 13.4 7.4" style="fill:url(#SVGID_6_)"/><linearGradient id="SVGID_7_" x1="21.366" x2="31.011" y1="59.028" y2="42.322" gradientUnits="userSpaceOnUse"><stop offset="0" style="stop-color:#d4d4d4"/><stop offset=".254" style="stop-color:#e2e2e2"/><stop offset=".688" style="stop-color:#f3f3f3"/><stop offset="1" style="stop-color:#fafafa"/></linearGradient><path d="M33.1 46.7c3.2 5.4 3.8 13.4 0 15.6-3.9 2.2-10.2-1.1-13.9-7.6s-3.6-13.6.2-15.8 10 1.5 13.7 7.8" style="fill:url(#SVGID_7_)"/><radialGradient id="SVGID_8_" cx="25.81" cy="50.776" r="13.917" gradientTransform="matrix(.4856 .8742 -.5043 .2801 38.883 13.99)" gradientUnits="userSpaceOnUse"><stop offset=".935" style="stop-color:#fff;stop-opacity:0"/><stop offset="1" style="stop-color:#fff"/></radialGradient><path d="M33.1 46.7c3.2 5.4 3.8 13.4 0 15.6-3.9 2.2-10.2-1.1-13.9-7.6s-3.6-13.6.2-15.8 10 1.5 13.7 7.8" style="opacity:.31;fill:url(#SVGID_8_)"/><linearGradient id="SVGID_9_" x1="27.624" x2="25.842" y1="-7.115" y2="-10.202" gradientTransform="matrix(1 .6519 0 1 0 42.505)" gradientUnits="userSpaceOnUse"><stop offset="0" style="stop-color:#161616"/><stop offset=".442" style="stop-color:#414141"/><stop offset=".454" style="stop-color:#575757"/><stop offset=".477" style="stop-color:#7f7f7f"/><stop offset=".503" style="stop-color:#a1a1a1"/><stop offset=".531" style="stop-color:#bfbfbf"/><stop offset=".562" style="stop-color:#d6d6d6"/><stop offset=".598" style="stop-color:#e9e9e9"/><stop offset=".639" style="stop-color:#f5f5f5"/><stop offset=".694" style="stop-color:#fdfdfd"/><stop offset=".812" style="stop-color:#fff"/><stop offset=".818" style="stop-color:#e9e9e9"/><stop offset=".83" style="stop-color:#c1c1c1"/><stop offset=".843" style="stop-color:#9f9f9f"/><stop offset=".857" style="stop-color:#818181"/><stop offset=".873" style="stop-color:#6a6a6a"/><stop offset=".891" style="stop-color:#575757"/><stop offset=".912" style="stop-color:#4b4b4b"/><stop offset=".94" style="stop-color:#434343"/><stop offset="1" style="stop-color:#414141"/></linearGradient><path d="m27.4 52.6.1-.3v-2.7c-1.2-.7-1.3-.2-1.3.3v3.3c.5.3.9 0 1.2-.6" style="fill:url(#SVGID_9_)"/><linearGradient id="SVGID_10_" x1="24.289" x2="24.098" y1="-10.016" y2="-10.346" gradientTransform="matrix(1 .6519 0 1 0 42.505)" gradientUnits="userSpaceOnUse"><stop offset="0" style="stop-color:#161616"/><stop offset=".442" style="stop-color:#414141"/><stop offset=".454" style="stop-color:#575757"/><stop offset=".477" style="stop-color:#7f7f7f"/><stop offset=".503" style="stop-color:#a1a1a1"/><stop offset=".531" style="stop-color:#bfbfbf"/><stop offset=".562" style="stop-color:#d6d6d6"/><stop offset=".598" style="stop-color:#e9e9e9"/><stop offset=".639" style="stop-color:#f5f5f5"/><stop offset=".694" style="stop-color:#fdfdfd"/><stop offset=".812" style="stop-color:#fff"/><stop offset=".818" style="stop-color:#e9e9e9"/><stop offset=".83" style="stop-color:#c1c1c1"/><stop offset=".843" style="stop-color:#9f9f9f"/><stop offset=".857" style="stop-color:#818181"/><stop offset=".873" style="stop-color:#6a6a6a"/><stop offset=".891" style="stop-color:#575757"/><stop offset=".912" style="stop-color:#4b4b4b"/><stop offset=".94" style="stop-color:#434343"/><stop offset="1" style="stop-color:#414141"/></linearGradient><path d="m24.3 48.3-.2-.1v-.3l.2.1z" style="fill:url(#SVGID_10_)"/><linearGradient id="SVGID_11_" x1="24.55" x2="24.36" y1="-9.571" y2="-9.901" gradientTransform="matrix(1 .6519 0 1 0 42.505)" gradientUnits="userSpaceOnUse"><stop offset="0" style="stop-color:#161616"/><stop offset=".442" style="stop-color:#414141"/><stop offset=".454" style="stop-color:#575757"/><stop offset=".477" style="stop-color:#7f7f7f"/><stop offset=".503" style="stop-color:#a1a1a1"/><stop offset=".531" style="stop-color:#bfbfbf"/><stop offset=".562" style="stop-color:#d6d6d6"/><stop offset=".598" style="stop-color:#e9e9e9"/><stop offset=".639" style="stop-color:#f5f5f5"/><stop offset=".694" style="stop-color:#fdfdfd"/><stop offset=".812" style="stop-color:#fff"/><stop offset=".818" style="stop-color:#e9e9e9"/><stop offset=".83" style="stop-color:#c1c1c1"/><stop offset=".843" style="stop-color:#9f9f9f"/><stop offset=".857" style="stop-color:#818181"/><stop offset=".873" style="stop-color:#6a6a6a"/><stop offset=".891" style="stop-color:#575757"/><stop offset=".912" style="stop-color:#4b4b4b"/><stop offset=".94" style="stop-color:#434343"/><stop offset="1" style="stop-color:#414141"/></linearGradient><path d="m24.6 48.9-.3-.1v-.3l.3.1z" style="fill:url(#SVGID_11_)"/><linearGradient id="SVGID_12_" x1="24.288" x2="24.099" y1="-9.171" y2="-9.499" gradientTransform="matrix(1 .6519 0 1 0 42.505)" gradientUnits="userSpaceOnUse"><stop offset="0" style="stop-color:#161616"/><stop offset=".442" style="stop-color:#414141"/><stop offset=".454" style="stop-color:#575757"/><stop offset=".477" style="stop-color:#7f7f7f"/><stop offset=".503" style="stop-color:#a1a1a1"/><stop offset=".531" style="stop-color:#bfbfbf"/><stop offset=".562" style="stop-color:#d6d6d6"/><stop offset=".598" style="stop-color:#e9e9e9"/><stop offset=".639" style="stop-color:#f5f5f5"/><stop offset=".694" style="stop-color:#fdfdfd"/><stop offset=".812" style="stop-color:#fff"/><stop offset=".818" style="stop-color:#e9e9e9"/><stop offset=".83" style="stop-color:#c1c1c1"/><stop offset=".843" style="stop-color:#9f9f9f"/><stop offset=".857" style="stop-color:#818181"/><stop offset=".873" style="stop-color:#6a6a6a"/><stop offset=".891" style="stop-color:#575757"/><stop offset=".912" style="stop-color:#4b4b4b"/><stop offset=".94" style="stop-color:#434343"/><stop offset="1" style="stop-color:#414141"/></linearGradient><path d="m24.3 49.2-.2-.2v-.3l.2.2z" style="fill:url(#SVGID_12_)"/><linearGradient id="SVGID_13_" x1="24.027" x2="23.838" y1="-8.695" y2="-9.024" gradientTransform="matrix(1 .6519 0 1 0 42.505)" gradientUnits="userSpaceOnUse"><stop offset="0" style="stop-color:#161616"/><stop offset=".442" style="stop-color:#414141"/><stop offset=".454" style="stop-color:#575757"/><stop offset=".477" style="stop-color:#7f7f7f"/><stop offset=".503" style="stop-color:#a1a1a1"/><stop offset=".531" style="stop-color:#bfbfbf"/><stop offset=".562" style="stop-color:#d6d6d6"/><stop offset=".598" style="stop-color:#e9e9e9"/><stop offset=".639" style="stop-color:#f5f5f5"/><stop offset=".694" style="stop-color:#fdfdfd"/><stop offset=".812" style="stop-color:#fff"/><stop offset=".818" style="stop-color:#e9e9e9"/><stop offset=".83" style="stop-color:#c1c1c1"/><stop offset=".843" style="stop-color:#9f9f9f"/><stop offset=".857" style="stop-color:#818181"/><stop offset=".873" style="stop-color:#6a6a6a"/><stop offset=".891" style="stop-color:#575757"/><stop offset=".912" style="stop-color:#4b4b4b"/><stop offset=".94" style="stop-color:#434343"/><stop offset="1" style="stop-color:#414141"/></linearGradient><path d="m24.1 49.5-.3-.2V49l.3.2z" style="fill:url(#SVGID_13_)"/><linearGradient id="SVGID_14_" x1="23.506" x2="23.314" y1="-10.272" y2="-10.604" gradientTransform="matrix(1 .6519 0 1 0 42.505)" gradientUnits="userSpaceOnUse"><stop offset="0" style="stop-color:#161616"/><stop offset=".442" style="stop-color:#414141"/><stop offset=".454" style="stop-color:#575757"/><stop offset=".477" style="stop-color:#7f7f7f"/><stop offset=".503" style="stop-color:#a1a1a1"/><stop offset=".531" style="stop-color:#bfbfbf"/><stop offset=".562" style="stop-color:#d6d6d6"/><stop offset=".598" style="stop-color:#e9e9e9"/><stop offset=".639" style="stop-color:#f5f5f5"/><stop offset=".694" style="stop-color:#fdfdfd"/><stop offset=".812" style="stop-color:#fff"/><stop offset=".818" style="stop-color:#e9e9e9"/><stop offset=".83" style="stop-color:#c1c1c1"/><stop offset=".843" style="stop-color:#9f9f9f"/><stop offset=".857" style="stop-color:#818181"/><stop offset=".873" style="stop-color:#6a6a6a"/><stop offset=".891" style="stop-color:#575757"/><stop offset=".912" style="stop-color:#4b4b4b"/><stop offset=".94" style="stop-color:#434343"/><stop offset="1" style="stop-color:#414141"/></linearGradient><path d="m23.5 47.6-.2-.2v-.3l.2.2z" style="fill:url(#SVGID_14_)"/><linearGradient id="SVGID_15_" x1="25.4" x2="22.895" y1="-5.179" y2="-9.517" gradientTransform="matrix(1 .6519 0 1 0 42.505)" gradientUnits="userSpaceOnUse"><stop offset="0" style="stop-color:#161616"/><stop offset=".442" style="stop-color:#414141"/><stop offset=".454" style="stop-color:#575757"/><stop offset=".477" style="stop-color:#7f7f7f"/><stop offset=".503" style="stop-color:#a1a1a1"/><stop offset=".531" style="stop-color:#bfbfbf"/><stop offset=".562" style="stop-color:#d6d6d6"/><stop offset=".598" style="stop-color:#e9e9e9"/><stop offset=".639" style="stop-color:#f5f5f5"/><stop offset=".694" style="stop-color:#fdfdfd"/><stop offset=".812" style="stop-color:#fff"/><stop offset=".818" style="stop-color:#e9e9e9"/><stop offset=".83" style="stop-color:#c1c1c1"/><stop offset=".843" style="stop-color:#9f9f9f"/><stop offset=".857" style="stop-color:#818181"/><stop offset=".873" style="stop-color:#6a6a6a"/><stop offset=".891" style="stop-color:#575757"/><stop offset=".912" style="stop-color:#4b4b4b"/><stop offset=".94" style="stop-color:#434343"/><stop offset="1" style="stop-color:#414141"/></linearGradient><path d="m23.8 49.6.3.2v.7l.3.2v-1.1l.3.2V52c0 1.1.8 2 .8 2-1.3-.8-2.1-2.2-2.1-3.4v-2.5l.3.2V50l.3.2v-.6z" style="fill:url(#SVGID_15_)"/><linearGradient id="SVGID_16_" x1="26.807" x2="26.017" y1="-5.701" y2="-7.069" gradientTransform="matrix(1 .6519 0 1 0 42.505)" gradientUnits="userSpaceOnUse"><stop offset="0" style="stop-color:#161616"/><stop offset=".442" style="stop-color:#414141"/><stop offset=".454" style="stop-color:#575757"/><stop offset=".477" style="stop-color:#7f7f7f"/><stop offset=".503" style="stop-color:#a1a1a1"/><stop offset=".531" style="stop-color:#bfbfbf"/><stop offset=".562" style="stop-color:#d6d6d6"/><stop offset=".598" style="stop-color:#e9e9e9"/><stop offset=".639" style="stop-color:#f5f5f5"/><stop offset=".694" style="stop-color:#fdfdfd"/><stop offset=".812" style="stop-color:#fff"/><stop offset=".818" style="stop-color:#e9e9e9"/><stop offset=".83" style="stop-color:#c1c1c1"/><stop offset=".843" style="stop-color:#9f9f9f"/><stop offset=".857" style="stop-color:#818181"/><stop offset=".873" style="stop-color:#6a6a6a"/><stop offset=".891" style="stop-color:#575757"/><stop offset=".912" style="stop-color:#4b4b4b"/><stop offset=".94" style="stop-color:#434343"/><stop offset="1" style="stop-color:#414141"/></linearGradient><path d="M25.6 53.1c-.3-.2-.6-.5-.8-.8.1.8.7 1.5.7 1.5l.2.2c1.2.6 1.9.1 1.9-1.1v-.3c-.4 1-1.1 1.1-2 .5" style="fill:url(#SVGID_16_)"/><linearGradient id="SVGID_17_" x1="24.027" x2="23.837" y1="-9.691" y2="-10.02" gradientTransform="matrix(1 .6519 0 1 0 42.505)" gradientUnits="userSpaceOnUse"><stop offset="0" style="stop-color:#161616"/><stop offset=".442" style="stop-color:#414141"/><stop offset=".454" style="stop-color:#575757"/><stop offset=".477" style="stop-color:#7f7f7f"/><stop offset=".503" style="stop-color:#a1a1a1"/><stop offset=".531" style="stop-color:#bfbfbf"/><stop offset=".562" style="stop-color:#d6d6d6"/><stop offset=".598" style="stop-color:#e9e9e9"/><stop offset=".639" style="stop-color:#f5f5f5"/><stop offset=".694" style="stop-color:#fdfdfd"/><stop offset=".812" style="stop-color:#fff"/><stop offset=".818" style="stop-color:#e9e9e9"/><stop offset=".83" style="stop-color:#c1c1c1"/><stop offset=".843" style="stop-color:#9f9f9f"/><stop offset=".857" style="stop-color:#818181"/><stop offset=".873" style="stop-color:#6a6a6a"/><stop offset=".891" style="stop-color:#575757"/><stop offset=".912" style="stop-color:#4b4b4b"/><stop offset=".94" style="stop-color:#434343"/><stop offset="1" style="stop-color:#414141"/></linearGradient><path d="m24.1 48.5-.3-.2V48l.3.2z" style="fill:url(#SVGID_17_)"/><path d="m27.3 52.5.1-.3v-2.6c-1.1-.7-1.2-.2-1.2.3v3.3c.5.2.9 0 1.1-.7m-3-4.5-.2-.1v.3l.2.1zm.1.8.2.1v-.2l-.2-.2zm-.1.1-.2-.1v.2l.2.1zm-.5.4.2.1v-.2l-.2-.1zm-.5-1.9.2.1v-.2l-.2-.1z" class="st97"/><path d="M24.6 51.8v-2.2l-.2-.1v1.1l-.4-.1v-.7l-.2-.1v.3l-.3-.2v-1.7l-.2-.1v2.5c0 1.3.8 2.6 2 3.3-.2-.3-.7-1.1-.7-2" class="st97"/><path d="M25.5 53.1c-.3-.2-.6-.4-.8-.7.2.7.6 1.3.7 1.4l.1.2c1.1.6 1.8.1 1.8-1.1-.2.7-.8.8-1.8.2m-1.7-4.8.2.1v-.2l-.2-.1z" class="st97"/><linearGradient id="SVGID_18_" x1="25.195" x2="28.275" y1="-10.883" y2="-6.422" gradientTransform="matrix(1 .6519 0 1 0 42.505)" gradientUnits="userSpaceOnUse"><stop offset="0" style="stop-color:#929292"/><stop offset=".496" style="stop-color:#929292"/><stop offset="1" style="stop-color:#ededed"/></linearGradient><path d="m27.3 52.5.1-.3v-2.6c-1.1-.7-1.2-.2-1.2.3v3.3c.5.2.9 0 1.1-.7" style="fill:url(#SVGID_18_)"/><linearGradient id="SVGID_19_" x1="24.37" x2="27.174" y1="-9.926" y2="-5.864" gradientTransform="matrix(1 .6519 0 1 0 42.505)" gradientUnits="userSpaceOnUse"><stop offset="0" style="stop-color:#929292"/><stop offset=".496" style="stop-color:#929292"/><stop offset="1" style="stop-color:#ededed"/></linearGradient><path d="m24.3 48-.2-.1v.3l.2.1z" style="fill:url(#SVGID_19_)"/><linearGradient id="SVGID_20_" x1="24.346" x2="27.151" y1="-9.894" y2="-5.831" gradientTransform="matrix(1 .6519 0 1 0 42.505)" gradientUnits="userSpaceOnUse"><stop offset="0" style="stop-color:#929292"/><stop offset=".496" style="stop-color:#929292"/><stop offset="1" style="stop-color:#ededed"/></linearGradient><path d="m24.4 48.8.2.1v-.2l-.2-.2z" style="fill:url(#SVGID_20_)"/><linearGradient id="SVGID_21_" x1="24.012" x2="26.82" y1="-9.598" y2="-5.532" gradientTransform="matrix(1 .6519 0 1 0 42.505)" gradientUnits="userSpaceOnUse"><stop offset="0" style="stop-color:#929292"/><stop offset=".496" style="stop-color:#929292"/><stop offset="1" style="stop-color:#ededed"/></linearGradient><path d="m24.3 48.9-.2-.1v.2l.2.1z" style="fill:url(#SVGID_21_)"/><linearGradient id="SVGID_22_" x1="23.647" x2="26.455" y1="-9.273" y2="-5.207" gradientTransform="matrix(1 .6519 0 1 0 42.505)" gradientUnits="userSpaceOnUse"><stop offset="0" style="stop-color:#929292"/><stop offset=".496" style="stop-color:#929292"/><stop offset="1" style="stop-color:#ededed"/></linearGradient><path d="m23.8 49.3.2.1v-.2l-.2-.1z" style="fill:url(#SVGID_22_)"/><linearGradient id="SVGID_23_" x1="23.987" x2="26.794" y1="-9.602" y2="-5.536" gradientTransform="matrix(1 .6519 0 1 0 42.505)" gradientUnits="userSpaceOnUse"><stop offset="0" style="stop-color:#929292"/><stop offset=".496" style="stop-color:#929292"/><stop offset="1" style="stop-color:#ededed"/></linearGradient><path d="m23.3 47.4.2.1v-.2l-.2-.1z" style="fill:url(#SVGID_23_)"/><linearGradient id="SVGID_24_" x1="23.093" x2="26.011" y1="-8.879" y2="-4.653" gradientTransform="matrix(1 .6519 0 1 0 42.505)" gradientUnits="userSpaceOnUse"><stop offset="0" style="stop-color:#929292"/><stop offset=".496" style="stop-color:#929292"/><stop offset="1" style="stop-color:#ededed"/></linearGradient><path d="M24.6 51.8v-2.2l-.2-.1v1.1l-.4-.1v-.7l-.2-.1v.3l-.3-.2v-1.7l-.2-.1v2.5c0 1.3.8 2.6 2 3.3-.2-.3-.7-1.1-.7-2" style="fill:url(#SVGID_24_)"/><linearGradient id="SVGID_25_" x1="24.339" x2="26.956" y1="-9.345" y2="-5.555" gradientTransform="matrix(1 .6519 0 1 0 42.505)" gradientUnits="userSpaceOnUse"><stop offset="0" style="stop-color:#929292"/><stop offset=".496" style="stop-color:#929292"/><stop offset="1" style="stop-color:#ededed"/></linearGradient><path d="M25.5 53.1c-.3-.2-.6-.4-.8-.7.2.7.6 1.3.7 1.4l.1.2c1.1.6 1.8.1 1.8-1.1-.2.7-.8.8-1.8.2" style="fill:url(#SVGID_25_)"/><linearGradient id="SVGID_26_" x1="24.068" x2="26.876" y1="-9.659" y2="-5.592" gradientTransform="matrix(1 .6519 0 1 0 42.505)" gradientUnits="userSpaceOnUse"><stop offset="0" style="stop-color:#929292"/><stop offset=".496" style="stop-color:#929292"/><stop offset="1" style="stop-color:#ededed"/></linearGradient><path d="m23.8 48.3.2.1v-.2l-.2-.1z" style="fill:url(#SVGID_26_)"/><defs><filter id="Adobe_OpacityMaskFilter" width="4.1" height="7.1" x="23.3" y="47.2" filterUnits="userSpaceOnUse"><feColorMatrix values="1 0 0 0 0 0 1 0 0 0 0 0 1 0 0 0 0 0 1 0"/></filter></defs><mask id="SVGID_27_" width="4.1" height="7.1" x="23.3" y="47.2" maskUnits="userSpaceOnUse"><g style="filter:url(#Adobe_OpacityMaskFilter)"><linearGradient id="SVGID_28_" x1="23.746" x2="26.102" y1="-11.051" y2="-7.638" gradientTransform="matrix(1 .6519 0 1 0 42.505)" gradientUnits="userSpaceOnUse"><stop offset=".496" style="stop-color:#474747"/><stop offset="1" style="stop-color:#ededed"/></linearGradient><path d="M23.2 51.2s2.4 1.9 4.3-.5v-1.2L23.2 47z" style="fill:url(#SVGID_28_)"/></g></mask><g style="mask:url(#SVGID_27_)"><path d="m27.3 52.5.1-.3v-2.6c-1.1-.7-1.2-.2-1.2.3v3.3c.5.2.9 0 1.1-.7m-3-4.5-.2-.1v.3l.2.1zm.1.8.2.1v-.2l-.2-.2zm-.1.1-.2-.1v.2l.2.1zm-.5.4.2.1v-.2l-.2-.1zm-.5-1.9.2.1v-.2l-.2-.1z" class="st110"/><path d="M24.6 51.8v-2.2l-.2-.1v1.1l-.4-.1v-.7l-.2-.1v.3l-.3-.2v-1.7l-.2-.1v2.5c0 1.3.8 2.6 2 3.3-.2-.3-.7-1.1-.7-2" class="st110"/><path d="M25.5 53.1c-.3-.2-.6-.4-.8-.7.2.7.6 1.3.7 1.4l.1.2c1.1.6 1.8.1 1.8-1.1-.2.7-.8.8-1.8.2m-1.7-4.8.2.1v-.2l-.2-.1z" class="st110"/></g></g></switch></svg>