<svg xmlns="http://www.w3.org/2000/svg" xml:space="preserve" id="Layer_1" x="0" y="0" viewBox="0 0 72 90"><style>.st88,.st89{stroke:#000;stroke-miterlimit:10}.st88{fill:none;stroke-width:1.696798e-02}.st89{stroke-width:1.735994e-02}.st89,.st90{fill:none}.st97{fill:#949494}.st107{fill:#fff}</style><switch><g><linearGradient id="SVGID_3_" x1="41.108" x2="41.719" y1="38.516" y2="37.905" gradientUnits="userSpaceOnUse"><stop offset=".015" style="stop-color:#424242"/><stop offset=".811" style="stop-color:#b8b8b8"/></linearGradient><path d="m41.7 38.6-.9-.4.7-.5z" style="fill:url(#SVGID_3_)"/><linearGradient id="SVGID_4_" x1="40.298" x2="40.909" y1="38.953" y2="38.342" gradientUnits="userSpaceOnUse"><stop offset=".015" style="stop-color:#424242"/><stop offset=".811" style="stop-color:#b8b8b8"/></linearGradient><path d="m40.9 39-.9-.4.7-.4z" style="fill:url(#SVGID_4_)"/><linearGradient id="SVGID_5_" x1="39.45" x2="40.061" y1="39.493" y2="38.882" gradientUnits="userSpaceOnUse"><stop offset=".015" style="stop-color:#424242"/><stop offset=".811" style="stop-color:#b8b8b8"/></linearGradient><path d="m40 39.5-.9-.3.8-.5z" style="fill:url(#SVGID_5_)"/><linearGradient id="SVGID_6_" x1="38.58" x2="39.191" y1="39.996" y2="39.386" gradientUnits="userSpaceOnUse"><stop offset=".015" style="stop-color:#424242"/><stop offset=".811" style="stop-color:#b8b8b8"/></linearGradient><path d="m39.2 40-.9-.3.7-.5z" style="fill:url(#SVGID_6_)"/><linearGradient id="SVGID_7_" x1="37.74" x2="38.351" y1="40.467" y2="39.856" gradientUnits="userSpaceOnUse"><stop offset=".015" style="stop-color:#424242"/><stop offset=".811" style="stop-color:#b8b8b8"/></linearGradient><path d="m38.3 40.5-.9-.3.8-.5z" style="fill:url(#SVGID_7_)"/><linearGradient id="SVGID_8_" x1="36.954" x2="37.565" y1="40.689" y2="40.078" gradientUnits="userSpaceOnUse"><stop offset=".015" style="stop-color:#424242"/><stop offset=".811" style="stop-color:#b8b8b8"/></linearGradient><path d="m37.5 40.7-.9-.3.8-.5z" style="fill:url(#SVGID_8_)"/><linearGradient id="SVGID_9_" x1="36.113" x2="36.724" y1="40.876" y2="40.265" gradientUnits="userSpaceOnUse"><stop offset=".015" style="stop-color:#424242"/><stop offset=".811" style="stop-color:#b8b8b8"/></linearGradient><path d="m36.7 40.9-.9-.3.7-.5z" style="fill:url(#SVGID_9_)"/><linearGradient id="SVGID_10_" x1="33.585" x2="35.238" y1="29.752" y2="29.752" gradientUnits="userSpaceOnUse"><stop offset="0" style="stop-color:#a8a8a8"/><stop offset=".231" style="stop-color:#afafaf"/><stop offset=".564" style="stop-color:#c2c2c2"/><stop offset=".958" style="stop-color:#e2e2e2"/><stop offset="1" style="stop-color:#e6e6e6"/></linearGradient><path d="M33.8 30.1c.2.1.5 0 .7.1.1.1.2.2.4.1s.4-.3.3-.5c-.2-.4-.8-.5-1.2-.5-.2 0-.3 0-.3.2 0 .1 0 .2-.1.4v.2z" style="fill:url(#SVGID_10_)"/><path d="m6 43.9 7.2 5.2v.9l-7-5.2z" class="st88"/><path d="M3.3 39.2 6 43.9l.2.9-2.7-4.6zm18.2 15.9s.1.1.3.2c.3.1.4 0 .4 0l-.3-3.3-8.7-2.9v.9s8.1 2.7 8.1 2.8c.1.2.2 2.3.2 2.3z" class="st88"/><ellipse cx="17.4" cy="34" class="st89" rx=".3" ry=".2"/><ellipse cx="26.7" cy="39" class="st89" rx=".4" ry=".2"/><ellipse cx="28.8" cy="32" class="st89" rx=".3" ry=".2"/><path d="M10.2 34.8c0 1.5 2.9 4.9 5.9 6.5 3.6 1.9 10.2 3.3 10.2 3.3l.8 2.6-.4.4s-9.9-2.6-12-3.7c-2.5-1.4-6.6-7.8-6.6-7.8l.2-.3s.9-.6 1.3-.9c.5-.3.6-.3.6-.1" class="st90"/><path d="M22.7 27.5s6.9 1.4 9.9 2.8c4.1 2.1 8 6.1 8 6.1" class="st89"/><path d="m22.2 55.2 2.3-1.8.5-1.2.8-.2.5-1.2.8-.1.5-1.3h.7l.5-1.2h.7l.3-1.2.8-.4.4-1.2.6-.4.5-1.1.8-.3.8-1.2 1.4-1.1.7-.2.7-.8.2.6.7-.8.1.6.7-.7.1.5.7-.9.2.4.6-.9.2.4.7-.9.2.4.6-.9.2.5 1.4-1.2.5-3.1-3.7 1.9-12.8 10.3-4.9 8.8" class="st90"/><path d="M10.6 45.4v-.1l.3-.2.3.2" class="st89"/><linearGradient id="SVGID_11_" x1="21.967" x2="43.165" y1="55.067" y2="33.869" gradientUnits="userSpaceOnUse"><stop offset=".291" style="stop-color:#e3e3e3"/><stop offset=".98" style="stop-color:#c2c2c2"/></linearGradient><path d="m22.2 55.2 2.3-1.8.5-1.2.8-.2.5-1.2.8-.1.5-1.3h.7l.5-1.2h.7l.3-1.2.8-.4.4-1.2.6-.4.5-1.1.8-.3.8-1.2 1.4-1.1.7-.2.7-.8.2.6.7-.8.2.6.6-.7.1.5.7-.9.2.4.6-.9.2.4.7-.9.2.4.6-.9.2.5 1.4-1.2.5-3.1-3.7 1.9-12.8 10.3-5.2 5.5.3 3.3" style="fill:url(#SVGID_11_)"/><path d="m10.7 45.5-.1-.1c0 .1.1.1.1.1m.7.1c.1 0 .3 0 .4-.1l.3.2.3-.2v-.2c-.1-.1-.4-.2-.6-.2s-.4 0-.5.1L11 45l-.3.2v.1l.1.1c.1.2.4.3.6.2"/><linearGradient id="SVGID_12_" x1="16.846" x2="28.564" y1="50.823" y2="25.693" gradientUnits="userSpaceOnUse"><stop offset=".107" style="stop-color:#ededed"/><stop offset=".291" style="stop-color:#f2f2f2"/><stop offset=".867" style="stop-color:#d1d1d1"/><stop offset=".959" style="stop-color:#ccc"/></linearGradient><path d="M38.9 30.5 32 27.6l-6.2-1.3-2.6 1.3h-.5L9.6 34.9l-1.3.9-.2.3L3.3 39 6 43.9l7.2 5.2 8.7 2.9 5-4 .2-.5 13.5-11v.3l3.1-2.5zM12.1 45.8l-.3-.2c-.1 0-.3.1-.4.1-.6 0-1-.2-1-.6 0-.1.1-.3.2-.4l-.3-.2.5-.3.3.2c.1 0 .3-.1.4-.1.6 0 1 .2 1 .6 0 .1-.1.2-.1.4l.3.2zm12.2-8.6c-2.2 0-4-1-4-2.3s1.8-2.3 4-2.3 4 1 4 2.3-1.8 2.3-4 2.3m10.6-7c-.2 0-.5.1-.7.1-.4 0-.8-.3-.8-.5 0-.1 0-.1.1-.2l-.2-.1.2-.1.2.1c.1-.1.3-.1.5-.1.4 0 .8.3.8.5v.1l.1.1z" style="fill:url(#SVGID_12_)"/><linearGradient id="SVGID_13_" x1="3.41" x2="4.436" y1="41.871" y2="40.845" gradientUnits="userSpaceOnUse"><stop offset=".291" style="stop-color:#787878"/><stop offset=".985" style="stop-color:#a3a3a3"/></linearGradient><path d="m3.7 40.1-.2-.1.4 2.4.3.2.6-.4z" style="fill:url(#SVGID_13_)"/><linearGradient id="SVGID_14_" x1="33.468" x2="33.739" y1="29.91" y2="29.328" gradientUnits="userSpaceOnUse"><stop offset="0" style="stop-color:#a8a8a8"/><stop offset=".231" style="stop-color:#afafaf"/><stop offset=".564" style="stop-color:#c2c2c2"/><stop offset=".958" style="stop-color:#e2e2e2"/><stop offset="1" style="stop-color:#e6e6e6"/></linearGradient><path d="M33.7 29.3v.7l-.2-.2v-.6z" style="fill:url(#SVGID_14_)"/><linearGradient id="SVGID_15_" x1="33.217" x2="33.471" y1="29.608" y2="29.608" gradientUnits="userSpaceOnUse"><stop offset="0" style="stop-color:#878787"/><stop offset=".415" style="stop-color:#8e8e8e"/><stop offset="1" style="stop-color:#a1a1a1"/></linearGradient><path d="m33.5 29.8-.2.2-.1-.7.3-.1z" style="fill:url(#SVGID_15_)"/><linearGradient id="SVGID_16_" x1="33.284" x2="33.445" y1="29.746" y2="29.746" gradientUnits="userSpaceOnUse"><stop offset="0" style="stop-color:#696969"/><stop offset=".252" style="stop-color:#6f6f6f"/><stop offset=".617" style="stop-color:#838383"/><stop offset="1" style="stop-color:#9e9e9e"/></linearGradient><path d="M33.4 29.5v.5h-.1v-.4z" style="fill:url(#SVGID_16_)"/><path d="m17.2 51.2 4.5 3.1v-1.8z" class="st97"/><linearGradient id="SVGID_17_" x1="18.863" x2="19.175" y1="52.858" y2="52.359" gradientUnits="userSpaceOnUse"><stop offset="0" style="stop-color:#696969"/><stop offset=".203" style="stop-color:#6f6f6f"/><stop offset=".496" style="stop-color:#838383"/><stop offset=".843" style="stop-color:#a2a2a2"/><stop offset="1" style="stop-color:#b3b3b3"/></linearGradient><path d="m21.4 54.5-4.9-3.6 1.4.7 3.5 2.3z" style="fill:url(#SVGID_17_)"/><linearGradient id="SVGID_18_" x1="6.02" x2="13.197" y1="46.946" y2="46.946" gradientUnits="userSpaceOnUse"><stop offset=".291" style="stop-color:#999"/><stop offset=".985" style="stop-color:#c2c2c2"/></linearGradient><path d="m6 43.9 7.2 5.2v.9l-7-5.2z" style="fill:url(#SVGID_18_)"/><linearGradient id="SVGID_19_" x1="4.048" x2="5.429" y1="42.648" y2="41.266" gradientUnits="userSpaceOnUse"><stop offset=".291" style="stop-color:#787878"/><stop offset=".985" style="stop-color:#a3a3a3"/></linearGradient><path d="M3.3 39.2 6 43.9l.2.9L3.4 40z" style="fill:url(#SVGID_19_)"/><linearGradient id="SVGID_20_" x1="13.197" x2="22.239" y1="52.247" y2="52.247" gradientUnits="userSpaceOnUse"><stop offset=".291" style="stop-color:#bababa"/><stop offset=".985" style="stop-color:#c2c2c2"/></linearGradient><path d="M21.5 55.1s.1.1.3.2c.3.1.4 0 .4 0l-.3-3.3-8.7-2.9v.9s8.1 2.7 8.1 2.8c.1.2.2 2.3.2 2.3" style="fill:url(#SVGID_20_)"/><linearGradient id="SVGID_21_" x1="17.893" x2="18.538" y1="35.348" y2="35.348" gradientUnits="userSpaceOnUse"><stop offset=".02" style="stop-color:#8f8f8f"/><stop offset=".474" style="stop-color:#f2f2f2"/><stop offset=".995" style="stop-color:#8f8f8f"/></linearGradient><ellipse cx="18.2" cy="35.3" rx=".3" ry=".2" style="fill:url(#SVGID_21_)"/><linearGradient id="SVGID_22_" x1="23.104" x2="23.884" y1="39.205" y2="39.205" gradientUnits="userSpaceOnUse"><stop offset=".02" style="stop-color:#8f8f8f"/><stop offset=".474" style="stop-color:#f2f2f2"/><stop offset=".995" style="stop-color:#8f8f8f"/></linearGradient><ellipse cx="23.5" cy="39.2" rx=".4" ry=".2" style="fill:url(#SVGID_22_)"/><linearGradient id="SVGID_23_" x1="25.059" x2="25.67" y1="30.838" y2="30.838" gradientUnits="userSpaceOnUse"><stop offset=".02" style="stop-color:#8f8f8f"/><stop offset=".474" style="stop-color:#f2f2f2"/><stop offset=".995" style="stop-color:#8f8f8f"/></linearGradient><ellipse cx="25.4" cy="30.8" rx=".3" ry=".2" style="fill:url(#SVGID_23_)"/><radialGradient id="SVGID_24_" cx="17.606" cy="41.139" r="8.129" gradientTransform="rotate(-65 -14.681 61.707)scale(1 2)" gradientUnits="userSpaceOnUse"><stop offset=".23" style="stop-color:#dedede"/><stop offset=".235" style="stop-color:#ddd"/><stop offset=".41" style="stop-color:#c4c4c4"/><stop offset=".57" style="stop-color:#b5b5b5"/><stop offset=".7" style="stop-color:#b0b0b0"/></radialGradient><path d="M10.2 34.8c0 1.5 2.9 4.9 5.9 6.5 3.6 1.9 10.2 3.3 10.2 3.3l.8 2.6-.4.4s-9.9-2.6-12-3.7c-2.5-1.4-6.6-7.8-6.6-7.8l.2-.3s.9-.6 1.3-.9c.5-.3.6-.3.6-.1" style="opacity:.2;fill:url(#SVGID_24_)"/><linearGradient id="SVGID_25_" x1="10.31" x2="12.534" y1="45.077" y2="44.882" gradientUnits="userSpaceOnUse"><stop offset=".02" style="stop-color:#8f8f8f"/><stop offset=".745" style="stop-color:#d4d4d4"/><stop offset=".995" style="stop-color:#8f8f8f"/></linearGradient><path d="m12.6 45.4-.3-.2c.1-.1.1-.2.1-.4 0-.4-.5-.6-1-.6-.1 0-.3 0-.4.1l-.3-.2-.5.3.3.2c-.1.1-.2.2-.2.4 0 .4.5.6 1 .6.1 0 .3 0 .4-.1l.3.2z" style="fill:url(#SVGID_25_)"/><path d="M10.6 45.4v-.1l.3-.2.3.2" class="st89"/><path d="m10.7 45.5-.1-.1c0 .1.1.1.1.1m-.1-.1"/><path d="M11.4 45.6c.1 0 .3 0 .4-.1l.3.2.3-.2v-.2c-.1-.1-.4-.2-.6-.2s-.4 0-.5.1L11 45l-.3.2v.1l.1.1c.1.2.4.3.6.2" class="st107"/><linearGradient id="SVGID_26_" x1="10.738" x2="11.196" y1="44.752" y2="44.752" gradientUnits="userSpaceOnUse"><stop offset="0" style="stop-color:#fff"/><stop offset="1" style="stop-color:#000"/></linearGradient><path d="m10.7 44.2.2.9.3.2-.2-.9z" style="fill:url(#SVGID_26_)"/><linearGradient id="SVGID_27_" x1="10.386" x2="10.626" y1="45.062" y2="45.062" gradientUnits="userSpaceOnUse"><stop offset="0" style="stop-color:#fff"/><stop offset="1" style="stop-color:#000"/></linearGradient><path d="M10.5 44.7c-.1.1-.2.2-.2.4 0 .1.1.3.2.4z" style="fill:url(#SVGID_27_)"/><linearGradient id="SVGID_28_" x1="32.253" x2="34.342" y1="32.866" y2="28.387" gradientUnits="userSpaceOnUse"><stop offset="0" style="stop-color:#c9c9c9"/><stop offset=".462" style="stop-color:#d6d6d6"/><stop offset="1" style="stop-color:#ebebeb"/></linearGradient><path d="M38.9 30.5 32 27.6l-6.2-1.3-2.6 1.3h-.5s6.9 1.4 9.9 2.8c4.1 2.1 8 6.1 8 6.1v.3l3.1-2.5zm-4-.3c-.2 0-.5.1-.7.1-.4 0-.8-.3-.8-.5 0-.1 0-.1.1-.2l-.2-.1.2-.1.2.1c.1-.1.3-.1.5-.1.4 0 .8.3.8.5v.1l.1.1z" style="fill:url(#SVGID_28_)"/><linearGradient id="SVGID_29_" x1="20.347" x2="28.262" y1="33.949" y2="33.949" gradientUnits="userSpaceOnUse"><stop offset=".097" style="stop-color:#dedede"/><stop offset=".505" style="stop-color:#f5f5f5"/><stop offset="1" style="stop-color:#d6d6d6"/></linearGradient><path d="M24.3 32.6c-2.2 0-4 1-4 2.3v.3c.2-1.1 1.9-2 3.9-2 2.1 0 3.8.9 3.9 2.1 0-.1.1-.3.1-.4.1-1.3-1.7-2.3-3.9-2.3" style="fill:url(#SVGID_29_)"/><linearGradient id="SVGID_30_" x1="30.314" x2="30.959" y1="34.588" y2="34.588" gradientUnits="userSpaceOnUse"><stop offset=".02" style="stop-color:#8f8f8f"/><stop offset=".474" style="stop-color:#f2f2f2"/><stop offset=".995" style="stop-color:#8f8f8f"/></linearGradient><ellipse cx="30.6" cy="34.6" rx=".3" ry=".2" style="fill:url(#SVGID_30_)"/><linearGradient id="SVGID_31_" x1="72.294" x2="72.905" y1="86.199" y2="85.588" gradientTransform="rotate(-3.342 -613.45 154.472)" gradientUnits="userSpaceOnUse"><stop offset=".015" style="stop-color:#424242"/><stop offset=".811" style="stop-color:#b8b8b8"/></linearGradient><path d="m67.7 46.3-.9-.3.7-.5z" style="fill:url(#SVGID_31_)"/><linearGradient id="SVGID_32_" x1="71.484" x2="72.095" y1="86.636" y2="86.025" gradientTransform="rotate(-3.342 -613.45 154.472)" gradientUnits="userSpaceOnUse"><stop offset=".015" style="stop-color:#424242"/><stop offset=".811" style="stop-color:#b8b8b8"/></linearGradient><path d="m67 46.8-1-.3.7-.5z" style="fill:url(#SVGID_32_)"/><linearGradient id="SVGID_33_" x1="70.636" x2="71.246" y1="87.176" y2="86.566" gradientTransform="rotate(-3.342 -613.45 154.472)" gradientUnits="userSpaceOnUse"><stop offset=".015" style="stop-color:#424242"/><stop offset=".811" style="stop-color:#b8b8b8"/></linearGradient><path d="m66.1 47.4-.9-.3.7-.5z" style="fill:url(#SVGID_33_)"/><linearGradient id="SVGID_34_" x1="69.766" x2="70.377" y1="87.68" y2="87.069" gradientTransform="rotate(-3.342 -613.45 154.472)" gradientUnits="userSpaceOnUse"><stop offset=".015" style="stop-color:#424242"/><stop offset=".811" style="stop-color:#b8b8b8"/></linearGradient><path d="m65.3 48-.9-.3.7-.5z" style="fill:url(#SVGID_34_)"/><linearGradient id="SVGID_35_" x1="68.926" x2="69.537" y1="88.151" y2="87.54" gradientTransform="rotate(-3.342 -613.45 154.472)" gradientUnits="userSpaceOnUse"><stop offset=".015" style="stop-color:#424242"/><stop offset=".811" style="stop-color:#b8b8b8"/></linearGradient><path d="m64.5 48.5-.9-.3.7-.5z" style="fill:url(#SVGID_35_)"/><linearGradient id="SVGID_36_" x1="68.14" x2="68.751" y1="88.373" y2="87.762" gradientTransform="rotate(-3.342 -613.45 154.472)" gradientUnits="userSpaceOnUse"><stop offset=".015" style="stop-color:#424242"/><stop offset=".811" style="stop-color:#b8b8b8"/></linearGradient><path d="m63.7 48.8-.9-.3.7-.6z" style="fill:url(#SVGID_36_)"/><linearGradient id="SVGID_37_" x1="67.299" x2="67.909" y1="88.559" y2="87.948" gradientTransform="rotate(-3.342 -613.45 154.472)" gradientUnits="userSpaceOnUse"><stop offset=".015" style="stop-color:#424242"/><stop offset=".811" style="stop-color:#b8b8b8"/></linearGradient><path d="m62.9 49-.9-.3.7-.5z" style="fill:url(#SVGID_37_)"/><linearGradient id="SVGID_38_" x1="64.77" x2="66.424" y1="77.435" y2="77.435" gradientTransform="rotate(-3.342 -613.45 154.472)" gradientUnits="userSpaceOnUse"><stop offset="0" style="stop-color:#a8a8a8"/><stop offset=".231" style="stop-color:#afafaf"/><stop offset=".564" style="stop-color:#c2c2c2"/><stop offset=".958" style="stop-color:#e2e2e2"/><stop offset="1" style="stop-color:#e6e6e6"/></linearGradient><path d="M59.3 38.3c.2.1.5 0 .7.1.1.1.2.1.4.1.2-.1.4-.3.3-.6-.2-.4-.8-.4-1.3-.4-.2 0-.3 0-.3.2v.6z" style="fill:url(#SVGID_38_)"/><path d="m32.4 53.8 7.5 4.8.1.8-7.4-4.7zm-2.9-4.6 2.9 4.6.2.9-2.9-4.5z" class="st88"/><path d="M48.5 64.1s.1.1.4.2.4 0 .4 0l-.5-3.3-8.9-2.3.1.9s8.2 2.2 8.3 2.4z" class="st88"/><ellipse cx="43.3" cy="43.2" class="st89" rx=".3" ry=".2" transform="rotate(-3.342 43.254 43.224)"/><ellipse cx="52.8" cy="47.7" class="st89" rx=".4" ry=".2" transform="rotate(-3.342 52.794 47.664)"/><ellipse cx="54.5" cy="40.5" class="st89" rx=".3" ry=".2" transform="rotate(-3.342 54.45 40.514)"/><path d="M36 44.4c.1 1.5 3.2 4.7 6.3 6.1 3.7 1.7 10.4 2.7 10.4 2.7l.9 2.6-.4.4s-10-2-12.2-3c-2.6-1.2-7-7.4-7-7.4l.1-.3s.9-.7 1.2-.9c.7-.4.7-.4.7-.2" class="st90"/><path d="M48.1 36.5s7 .9 10 2.2c4.3 1.8 8.3 5.6 8.3 5.6" class="st89"/><path d="m49.3 64.1 2.2-1.9.3-1.2.8-.3.5-1.2.8-.2.4-1.3h.7l.4-1.3.7-.1.3-1.2.7-.3.3-1.3.7-.4.4-1.1.7-.4.8-1.2 1.3-1.3.7-.1.7-.9.2.6.7-.9.1.6.6-.8.2.6.6-.9.2.4.6-1 .2.4.6-1 .3.4.5-.8.2.3 1.4-1.2.3-3.1-3.6 2.1-12.2 11-4.3 9.1" class="st90"/><path d="M37.1 55v-.1l.3-.2.3.2" class="st89"/><linearGradient id="SVGID_39_" x1="53.153" x2="74.351" y1="102.75" y2="81.552" gradientTransform="rotate(-3.342 -613.45 154.472)" gradientUnits="userSpaceOnUse"><stop offset=".291" style="stop-color:#e3e3e3"/><stop offset=".98" style="stop-color:#c2c2c2"/></linearGradient><path d="m49.3 64.1 2.2-1.9.3-1.2.8-.3.5-1.2.8-.2.4-1.3h.7l.4-1.3.7-.1.3-1.2.7-.3.3-1.3.7-.4.4-1.1.7-.4.8-1.2 1.3-1.3.7-.1.7-.9.2.6.7-.9.1.7.6-.9.2.6.6-.9.2.4.6-1 .2.4.6-1 .3.4.5-.8.2.3 1.4-1.2.3-3.1-3.6 2.1-12.2 11-4.8 5.8.5 3.3" style="fill:url(#SVGID_39_)"/><path d="m37.2 55.1-.1-.1c0 .1.1.1.1.1m-.1-.1"/><path d="M37.9 55.2c.1 0 .3-.1.4-.1l.3.2.2-.2v-.2c-.2-.1-.4-.1-.6-.1s-.4.1-.5.1l-.3-.2-.3.2v.1l.1.1c.2.1.5.1.7.1"/><linearGradient id="SVGID_40_" x1="48.032" x2="59.75" y1="98.506" y2="73.376" gradientTransform="rotate(-3.342 -613.45 154.472)" gradientUnits="userSpaceOnUse"><stop offset=".107" style="stop-color:#ededed"/><stop offset=".291" style="stop-color:#f2f2f2"/><stop offset=".867" style="stop-color:#d1d1d1"/><stop offset=".959" style="stop-color:#ccc"/></linearGradient><path d="m64.4 38.5-7-2.5-6.2-1-2.5 1.4h-.5l-12.7 8.1-1.3 1-.1.3-4.6 3.2 3 4.7 7.5 4.8 8.9 2.3 4.7-4.3.2-.6 12.8-11.7v.3l2.9-2.7zM38.6 55.3l-.3-.2c-.1.1-.3.1-.4.1-.6.1-1.1-.2-1.1-.5 0-.1 0-.3.1-.4l-.3-.2.5-.3.3.2c.1 0 .3-.1.4-.1.6-.1 1.1.2 1.1.5 0 .1 0 .3-.1.4l.3.2zM50.3 46c-2.2.1-4-.8-4.1-2-.1-1.3 1.6-2.4 3.8-2.5s4 .8 4.1 2-1.6 2.4-3.8 2.5m10.1-7.6c-.2.1-.4.1-.7.1-.4 0-.8-.2-.8-.5 0-.1 0-.1.1-.2l-.2-.1.2-.2.2.1c.1-.1.3-.1.5-.1.4 0 .8.2.8.5v.1l.1.1z" style="fill:url(#SVGID_40_)"/><linearGradient id="SVGID_41_" x1="34.596" x2="35.622" y1="89.555" y2="88.528" gradientTransform="rotate(-3.342 -613.45 154.472)" gradientUnits="userSpaceOnUse"><stop offset=".291" style="stop-color:#787878"/><stop offset=".985" style="stop-color:#a3a3a3"/></linearGradient><path d="M29.9 50.1h-.2l.5 2.2.3.2.6-.3z" style="fill:url(#SVGID_41_)"/><linearGradient id="SVGID_42_" x1="64.653" x2="64.925" y1="77.593" y2="77.011" gradientTransform="rotate(-3.342 -613.45 154.472)" gradientUnits="userSpaceOnUse"><stop offset="0" style="stop-color:#a8a8a8"/><stop offset=".231" style="stop-color:#afafaf"/><stop offset=".564" style="stop-color:#c2c2c2"/><stop offset=".958" style="stop-color:#e2e2e2"/><stop offset="1" style="stop-color:#e6e6e6"/></linearGradient><path d="m59.2 37.6.1.7-.3-.2v-.6z" style="fill:url(#SVGID_42_)"/><linearGradient id="SVGID_43_" x1="64.403" x2="64.657" y1="77.292" y2="77.292" gradientTransform="rotate(-3.342 -613.45 154.472)" gradientUnits="userSpaceOnUse"><stop offset="0" style="stop-color:#878787"/><stop offset=".415" style="stop-color:#8e8e8e"/><stop offset="1" style="stop-color:#a1a1a1"/></linearGradient><path d="m59 38.1-.2.2-.1-.7.3-.1z" style="fill:url(#SVGID_43_)"/><linearGradient id="SVGID_44_" x1="64.47" x2="64.631" y1="77.43" y2="77.43" gradientTransform="rotate(-3.342 -613.45 154.472)" gradientUnits="userSpaceOnUse"><stop offset="0" style="stop-color:#696969"/><stop offset=".252" style="stop-color:#6f6f6f"/><stop offset=".617" style="stop-color:#838383"/><stop offset="1" style="stop-color:#9e9e9e"/></linearGradient><path d="M59 37.8v.4l-.2.1v-.4z" style="fill:url(#SVGID_44_)"/><path d="m44 60.4 4.7 2.8-.1-1.8z" class="st97"/><linearGradient id="SVGID_45_" x1="50.049" x2="50.361" y1="100.542" y2="100.043" gradientTransform="rotate(-3.342 -613.45 154.472)" gradientUnits="userSpaceOnUse"><stop offset="0" style="stop-color:#696969"/><stop offset=".203" style="stop-color:#6f6f6f"/><stop offset=".496" style="stop-color:#838383"/><stop offset=".843" style="stop-color:#a2a2a2"/><stop offset="1" style="stop-color:#b3b3b3"/></linearGradient><path d="m48.4 63.4-5.1-3.2 1.5.5 3.6 2.2z" style="fill:url(#SVGID_45_)"/><linearGradient id="SVGID_46_" x1="37.205" x2="44.383" y1="94.629" y2="94.629" gradientTransform="rotate(-3.342 -613.45 154.472)" gradientUnits="userSpaceOnUse"><stop offset=".291" style="stop-color:#999"/><stop offset=".985" style="stop-color:#c2c2c2"/></linearGradient><path d="m32.4 53.8 7.5 4.8.1.8-7.4-4.7z" style="fill:url(#SVGID_46_)"/><linearGradient id="SVGID_47_" x1="35.234" x2="36.615" y1="90.331" y2="88.95" gradientTransform="rotate(-3.342 -613.45 154.472)" gradientUnits="userSpaceOnUse"><stop offset=".291" style="stop-color:#787878"/><stop offset=".985" style="stop-color:#a3a3a3"/></linearGradient><path d="m29.5 49.2 2.9 4.6.2.8-3-4.6z" style="fill:url(#SVGID_47_)"/><linearGradient id="SVGID_48_" x1="44.383" x2="53.425" y1="99.93" y2="99.93" gradientTransform="rotate(-3.342 -613.45 154.472)" gradientUnits="userSpaceOnUse"><stop offset=".291" style="stop-color:#bababa"/><stop offset=".985" style="stop-color:#c2c2c2"/></linearGradient><path d="M48.5 64.1s.1.1.4.2.4 0 .4 0l-.5-3.3-8.9-2.3.1.9s8.2 2.2 8.3 2.4z" style="fill:url(#SVGID_48_)"/><linearGradient id="SVGID_49_" x1="49.079" x2="49.724" y1="83.032" y2="83.032" gradientTransform="rotate(-3.342 -613.45 154.472)" gradientUnits="userSpaceOnUse"><stop offset=".02" style="stop-color:#8f8f8f"/><stop offset=".474" style="stop-color:#f2f2f2"/><stop offset=".995" style="stop-color:#8f8f8f"/></linearGradient><path d="M44.4 44.5c0 .1-.1.2-.3.2s-.3-.1-.3-.2.1-.2.3-.2.3.1.3.2" style="fill:url(#SVGID_49_)"/><linearGradient id="SVGID_50_" x1="54.29" x2="55.07" y1="86.888" y2="86.888" gradientTransform="rotate(-3.342 -613.45 154.472)" gradientUnits="userSpaceOnUse"><stop offset=".02" style="stop-color:#8f8f8f"/><stop offset=".474" style="stop-color:#f2f2f2"/><stop offset=".995" style="stop-color:#8f8f8f"/></linearGradient><path d="M50 48c0 .1-.2.2-.4.2s-.4-.1-.4-.2.2-.2.4-.2.4.1.4.2" style="fill:url(#SVGID_50_)"/><linearGradient id="SVGID_51_" x1="56.245" x2="56.856" y1="78.521" y2="78.521" gradientTransform="rotate(-3.342 -613.45 154.472)" gradientUnits="userSpaceOnUse"><stop offset=".02" style="stop-color:#8f8f8f"/><stop offset=".474" style="stop-color:#f2f2f2"/><stop offset=".995" style="stop-color:#8f8f8f"/></linearGradient><path d="M51.3 39.6c0 .1-.1.2-.3.2s-.3-.1-.3-.1c0-.1.1-.2.3-.2.1-.1.3 0 .3.1" style="fill:url(#SVGID_51_)"/><radialGradient id="SVGID_52_" cx="48.792" cy="88.822" r="8.129" gradientTransform="matrix(.3691 -.9294 1.8588 .7381 -139.271 30.116)" gradientUnits="userSpaceOnUse"><stop offset=".23" style="stop-color:#dedede"/><stop offset=".235" style="stop-color:#ddd"/><stop offset=".41" style="stop-color:#c4c4c4"/><stop offset=".57" style="stop-color:#b5b5b5"/><stop offset=".7" style="stop-color:#b0b0b0"/></radialGradient><path d="M36 44.4c.1 1.5 3.2 4.7 6.3 6.1 3.7 1.7 10.4 2.7 10.4 2.7l.9 2.6-.4.4s-10-2-12.2-3c-2.6-1.2-7-7.4-7-7.4l.1-.3s.9-.7 1.2-.9c.7-.4.7-.4.7-.2" style="opacity:.2;fill:url(#SVGID_52_)"/><linearGradient id="SVGID_53_" x1="41.496" x2="43.72" y1="92.76" y2="92.565" gradientTransform="rotate(-3.342 -613.45 154.472)" gradientUnits="userSpaceOnUse"><stop offset=".02" style="stop-color:#8f8f8f"/><stop offset=".745" style="stop-color:#d4d4d4"/><stop offset=".995" style="stop-color:#8f8f8f"/></linearGradient><path d="m39.1 54.9-.3-.2c.1-.1.1-.2.1-.4 0-.4-.5-.6-1.1-.5-.1 0-.3.1-.4.1l-.3-.2-.5.3.3.2c-.1.1-.1.2-.1.4 0 .4.5.6 1.1.5.1 0 .3-.1.4-.1l.3.2z" style="fill:url(#SVGID_53_)"/><path d="M37.1 55v-.1l.3-.2.3.2" class="st89"/><path d="m37.2 55.1-.1-.1c0 .1.1.1.1.1m-.1-.1"/><path d="M37.9 55.2c.1 0 .3-.1.4-.1l.3.2.2-.2v-.2c-.2-.1-.4-.1-.6-.1s-.4.1-.5.1l-.3-.2-.3.2v.1l.1.1c.2.1.5.1.7.1" class="st107"/><linearGradient id="SVGID_54_" x1="41.924" x2="42.382" y1="92.435" y2="92.435" gradientTransform="rotate(-3.342 -613.45 154.472)" gradientUnits="userSpaceOnUse"><stop offset="0" style="stop-color:#fff"/><stop offset="1" style="stop-color:#000"/></linearGradient><path d="m37.2 53.8.2.9.3.2-.3-.9z" style="fill:url(#SVGID_54_)"/><linearGradient id="SVGID_55_" x1="41.571" x2="41.812" y1="92.746" y2="92.746" gradientTransform="rotate(-3.342 -613.45 154.472)" gradientUnits="userSpaceOnUse"><stop offset="0" style="stop-color:#fff"/><stop offset="1" style="stop-color:#000"/></linearGradient><path d="M37 54.3c-.1.1-.1.2-.1.4 0 .1.1.3.2.4V55z" style="fill:url(#SVGID_55_)"/><linearGradient id="SVGID_56_" x1="63.439" x2="65.528" y1="80.549" y2="76.07" gradientTransform="rotate(-3.342 -613.45 154.472)" gradientUnits="userSpaceOnUse"><stop offset="0" style="stop-color:#c9c9c9"/><stop offset=".462" style="stop-color:#d6d6d6"/><stop offset="1" style="stop-color:#ebebeb"/></linearGradient><path d="m64.4 38.5-7-2.5-6.2-1-2.5 1.4h-.5s7 .9 10 2.2c4.3 1.8 8.3 5.6 8.3 5.6v.3l2.9-2.6zm-4-.1c-.2.1-.4.1-.7.1-.4 0-.8-.2-.8-.5 0-.1 0-.1.1-.2l-.2-.1.2-.2.2.1c.1-.1.3-.1.5-.1.4 0 .8.2.8.5v.1l.1.1z" style="fill:url(#SVGID_56_)"/><linearGradient id="SVGID_57_" x1="51.532" x2="59.448" y1="81.633" y2="81.633" gradientTransform="rotate(-3.342 -613.45 154.472)" gradientUnits="userSpaceOnUse"><stop offset=".097" style="stop-color:#dedede"/><stop offset=".505" style="stop-color:#f5f5f5"/><stop offset="1" style="stop-color:#d6d6d6"/></linearGradient><path d="M50 41.4c-2.2.1-3.9 1.3-3.8 2.5v.3c.2-1.1 1.8-2.1 3.8-2.2 2.1-.1 3.8.7 4 1.9v-.4c0-1.3-1.8-2.2-4-2.1" style="fill:url(#SVGID_57_)"/><linearGradient id="SVGID_58_" x1="61.5" x2="62.144" y1="82.271" y2="82.271" gradientTransform="rotate(-3.342 -613.45 154.472)" gradientUnits="userSpaceOnUse"><stop offset=".02" style="stop-color:#8f8f8f"/><stop offset=".474" style="stop-color:#f2f2f2"/><stop offset=".995" style="stop-color:#8f8f8f"/></linearGradient><path d="M56.8 43c0 .1-.1.2-.3.2s-.3-.1-.3-.2.1-.2.3-.2c.1 0 .3.1.3.2" style="fill:url(#SVGID_58_)"/></g></switch></svg>