<svg xmlns="http://www.w3.org/2000/svg" xmlns:xlink="http://www.w3.org/1999/xlink" xml:space="preserve" id="Layer_1" x="0" y="0" viewBox="0 0 72 90"><style>.st81{fill:#a6a8ab}.st83{fill:#f1f1f2}.st84{fill:#bbbdbf}.st88{fill:#d0d2d3}.st93{fill:#929497}.st147{fill:#cfd1d2}.st151{fill:#e5e6e6}.st152{fill:#808083}.st153{opacity:.5}.st154{fill:#f6f6f7}.st155{fill:#d7d8d8}</style><switch><g><linearGradient id="SVGID_3_" x1="38.887" x2="40.334" y1="51.066" y2="51.066" gradientUnits="userSpaceOnUse"><stop offset="0" style="stop-color:#737477"/><stop offset=".228" style="stop-color:#7c7e80"/><stop offset=".354" style="stop-color:#8f9193"/><stop offset=".609" style="stop-color:#c1c3c5"/><stop offset=".659" style="stop-color:#cccecf"/><stop offset="1" style="stop-color:#c4c5c7"/></linearGradient><path d="M40.3 49v3.6l-.6.5-.8.3v-3.9l1-.8z" style="fill:url(#SVGID_3_)"/><path d="m40.2 48.6-1.4 1.3-.1-2.8 1.3-.9.2.3z" class="st81"/><linearGradient id="SVGID_4_" x1="39.977" x2="41.275" y1="47.934" y2="47.934" gradientUnits="userSpaceOnUse"><stop offset="0" style="stop-color:#97999c"/><stop offset=".78" style="stop-color:#cccecf"/><stop offset="1" style="stop-color:#c4c5c7"/></linearGradient><path d="M40 46.3v2.8l.7.1s.2.1.3.2.4.1.4-.1v-2.8z" style="fill:url(#SVGID_4_)"/><path d="M39 46s1 .1 1.1.1.9.3 1 .4.2.1.2.2-.2.2-.3.2l-.3-.1-.7-.5-1.1 1.2zm-.1 1.9 1.1-.7v.3l-1.1 1.1zm0 1.2 1.1-.7v.2l-1.1 1.1z" class="st83"/><path d="M40 48.6v.6l-1.2 1.2.1-.7zm-1.1 0 1.1-1.1v.1l-1.1 1.2zm1.1-2.3v.2l-1.1 1.3v-.3z" class="st84"/><path d="m40.2 55.2-1.4 1.2-.1-2.7 1.3-1 .2.3z" class="st81"/><linearGradient id="SVGID_5_" x1="39.977" x2="41.275" y1="54.451" y2="54.451" gradientUnits="userSpaceOnUse"><stop offset="0" style="stop-color:#97999c"/><stop offset=".78" style="stop-color:#cccecf"/><stop offset="1" style="stop-color:#c4c5c7"/></linearGradient><path d="M40 52.9v2.8l.7.1s.2.1.3.2.4.1.4-.1v-2.8z" style="fill:url(#SVGID_5_)"/><path d="M39 52.5s1 .1 1.1.1.9.3 1 .4.2.1.2.2-.2.2-.3.2l-.3-.1-.7-.4-1.1 1.1zm-.1 2 1.1-.8v.3l-1.1 1.1zm0 1.1 1.1-.7v.3l-1.1 1z" class="st83"/><path d="M40 55.2v.5l-1.2 1.2.1-.7zm-1.1-.1L40 54v.1l-1.1 1.3zm1.1-2.2v.1l-1.1 1.3V54z" class="st84"/><linearGradient id="SVGID_6_" x1="40.155" x2="39.859" y1="41.203" y2="44.059" gradientUnits="userSpaceOnUse"><stop offset="0" style="stop-color:#e2e3e4"/><stop offset=".228" style="stop-color:#c9cbcc"/><stop offset=".513" style="stop-color:#b2b3b6"/><stop offset=".778" style="stop-color:#a3a5a8"/><stop offset="1" style="stop-color:#9ea0a3"/></linearGradient><path d="M37.9 77.6c.7-.8 1.1-1.3 1.1-2.5V43.3c0-2-1.1-3.2-1.1-3.2z" style="fill:url(#SVGID_6_)"/><linearGradient id="SVGID_7_" x1="29.098" x2="38.161" y1="58.327" y2="58.327" gradientUnits="userSpaceOnUse"><stop offset="0" style="stop-color:#ededee"/><stop offset=".376" style="stop-color:#f2f2f2"/><stop offset=".811" style="stop-color:#f2f3f3"/><stop offset=".854" style="stop-color:#eeeff0"/><stop offset=".893" style="stop-color:#e3e5e5"/><stop offset=".93" style="stop-color:#d1d2d3"/><stop offset=".966" style="stop-color:#b7b9bb"/><stop offset="1" style="stop-color:#989a9d"/></linearGradient><path d="M29.1 36.2v37.6c0 2.4 1.6 4.8 3.3 6s3.8.9 4.7 0 1.1-2 1.1-2.8V39.4h-2.6s-.6-.7-1.3-1.1c-1-.5-1.2-.3-1.5-.5s-.2-.8-.2-1.7z" style="fill:url(#SVGID_7_)"/><path d="m33.3 56.2.1-.2v-1.6c-.7-.4-.8-.1-.8.2v2.1c.3.1.5-.1.7-.5m-1.9-2.5-.2-.1v-.2l.2.1zm.2.4-.2-.1v-.2l.2.1zm-.2.1-.2-.1v-.2l.2.1zm-.2.2-.1-.1v-.2l.1.1zm-.3-1.2-.1-.1V53h.1z" class="st88"/><path d="m31.1 54.5.2.1v.4l.2.1v-.7l.2.1v1.3c0 .6.5 1.2.5 1.2-.8-.5-1.3-1.3-1.3-2v-1.5l.2.1v1l.2.1v-.2z" class="st88"/><path d="M32.2 56.5c-.2-.1-.4-.3-.5-.5.1.5.4.9.4.9l.1.1c.7.4 1.2.1 1.2-.6v-.2q-.45.9-1.2.3m-1-2.7-.1-.1v-.2l.1.1z" class="st88"/><linearGradient id="SVGID_8_" x1="34.756" x2="38.064" y1="59.855" y2="59.855" gradientUnits="userSpaceOnUse"><stop offset="0" style="stop-color:#dfe0e1"/><stop offset=".295" style="stop-color:#ececec"/><stop offset=".411" style="stop-color:#f2f2f2"/><stop offset=".766" style="stop-color:#c6c7c9"/><stop offset="1" style="stop-color:#a6a8ab"/></linearGradient><path d="M36 80.4c.4-.1.8-.3 1-.6.9-.9 1.1-2 1.1-2.8V39.3l-2.6.1s-.4.2-.9-.2v1.9c0 1.9 1.3 4.6 1.3 4.6v34.7z" style="fill:url(#SVGID_8_)"/><path d="M30.6 72.2c.1.5.2.9.6 1.1.3.2 1.7 1 1.9 1.1s.5.1.6-.4c-.5-.2-.9-.5-1.4-.7-.7-.4-1.3-.8-1.7-1.1" class="st88"/><path d="M31.1 73.3c.3.2 1.7 1 1.9 1.1s.5.1.5-.3c-.1.1-.3.1-.4 0s-1.5-.9-1.8-1.1c-.2-.1-.3-.3-.4-.6-.1-.1-.2-.1-.3-.2.1.5.2.9.5 1.1" style="fill:#f7f7f8"/><linearGradient id="SVGID_9_" x1="29.098" x2="32.706" y1="39.123" y2="39.123" gradientUnits="userSpaceOnUse"><stop offset="0" style="stop-color:#e2e3e4"/><stop offset=".095" style="stop-color:#ededee"/><stop offset=".194" style="stop-color:#f2f2f2"/><stop offset=".373" style="stop-color:#ececec"/><stop offset=".611" style="stop-color:#dbdcdd"/><stop offset=".881" style="stop-color:#c0c1c3"/><stop offset="1" style="stop-color:#b1b3b5"/></linearGradient><path d="M32.6 36.1h-3.5v6.1c0-2.5 3.6-4.5 3.6-4.5-.2-.2-.1-.8-.1-1.6" style="fill:url(#SVGID_9_)"/><path d="M36 74.9c-.8-.2-2.4-.8-3.8-1.6-1.5-.9-2.5-1.7-3.1-2.3v.1c.6.6 1.6 1.4 3.1 2.3 1.3.7 2.9 1.4 3.8 1.5.6.2 1.4 0 1.6-.1v2.8c0 1.2-.1 1.8-.7 2.4 0 0-.2.1-.2.2l.3-.3c.4-.5.5-1.2.5-2.2v-2.9h-.1c.1-.1-.7.2-1.4.1" class="st81"/><radialGradient id="SVGID_10_" cx="33.06" cy="72.16" r="5.834" gradientTransform="rotate(-6.367 -403.34 96.396)scale(1 1.6727)" gradientUnits="userSpaceOnUse"><stop offset=".655" style="stop-color:#d3d4d6;stop-opacity:0"/><stop offset=".887" style="stop-color:#bdbfc1"/><stop offset="1" style="stop-color:#a4a7a9"/></radialGradient><path d="M32.4 79.8c1.6 1.1 3.5 1 4.5.2.5-.6.7-1.2.7-2.4v-2.8s-.8.3-1.6.2c-.8-.2-2.4-.8-3.8-1.6s-2.5-1.6-3.1-2.3V74c0 2.2 1.6 4.6 3.3 5.8" style="fill:url(#SVGID_10_)"/><path d="M35.2 40c-.7-.4-.7-1 0-1.4s1.8-.4 2.5 0 .7 1 0 1.4-1.8.4-2.5 0" class="st93"/><path d="M35.4 39.9c-.6-.3-.6-.9 0-1.2s1.5-.3 2.1 0 .6.9 0 1.2-1.5.3-2.1 0" class="st81"/><linearGradient id="SVGID_11_" x1="36.428" x2="36.53" y1="39.468" y2="39.275" gradientUnits="userSpaceOnUse"><stop offset="0" style="stop-color:#a67a1f"/><stop offset="1" style="stop-color:#caa523"/></linearGradient><path d="M35.5 38.6v.3l1.8 1s.1 0 .1-.1l.1-.1z" style="fill:url(#SVGID_11_)"/><linearGradient id="SVGID_12_" x1="30.462" x2="31.349" y1="45.599" y2="48.246" gradientTransform="rotate(120 36.017 44.593)" gradientUnits="userSpaceOnUse"><stop offset="0" style="stop-color:#ce962b"/><stop offset="1" style="stop-color:#caa523"/></linearGradient><path d="M37.6 39.8c.4-.3.4-.8-.1-1.1s-1.4-.3-1.9-.1z" style="fill:url(#SVGID_12_)"/><linearGradient id="SVGID_13_" x1="31.039" x2="31.926" y1="45.405" y2="48.052" gradientTransform="rotate(120 36.017 44.593)" gradientUnits="userSpaceOnUse"><stop offset="0" style="stop-color:#caa523"/><stop offset="1" style="stop-color:#ce962b"/></linearGradient><path d="m37.3 40-2.1-1.2c-.4.3-.4.8.1 1.1.6.3 1.5.3 2 .1" style="fill:url(#SVGID_13_)"/><linearGradient id="SVGID_14_" x1="30.761" x2="31.53" y1="46.258" y2="47.601" gradientTransform="rotate(120 36.017 44.593)" gradientUnits="userSpaceOnUse"><stop offset="0" style="stop-color:#a67a1f"/><stop offset="1" style="stop-color:#caa523"/></linearGradient><path d="M35.6 38.5v.5l1.6.9v-.5z" style="fill:url(#SVGID_14_)"/><linearGradient id="SVGID_15_" x1="29.399" x2="30.527" y1="47.613" y2="47.613" gradientTransform="rotate(120 36.017 44.593)" gradientUnits="userSpaceOnUse"><stop offset="0" style="stop-color:#58595b"/><stop offset=".196" style="stop-color:#d0d2d3"/><stop offset=".294" style="stop-color:#f1f1f2"/><stop offset=".73" style="stop-color:#58595b"/><stop offset=".865" style="stop-color:#b3b5b7"/><stop offset=".877" style="stop-color:#bbbdbf"/><stop offset=".994" style="stop-color:#6d6e70"/></linearGradient><path d="M35.9 38.2c-.3-.2-.3-.5 0-.7s.8-.2 1.1 0 .3.5 0 .7c-.3.1-.8.1-1.1 0" style="fill:url(#SVGID_15_)"/><linearGradient id="SVGID_16_" x1="30.206" x2="30.974" y1="46.582" y2="47.925" gradientTransform="rotate(120 36.017 44.593)" gradientUnits="userSpaceOnUse"><stop offset="0" style="stop-color:#8d6c00"/><stop offset=".104" style="stop-color:#8d6c00"/><stop offset=".282" style="stop-color:#ce9c0e"/><stop offset=".399" style="stop-color:#795a02"/><stop offset=".442" style="stop-color:#ce962b"/><stop offset=".521" style="stop-color:#6f6324"/><stop offset=".601" style="stop-color:#caa523"/><stop offset=".638" style="stop-color:#ffc609"/><stop offset=".797" style="stop-color:#a0832f"/><stop offset=".89" style="stop-color:#725e26"/><stop offset=".988" style="stop-color:#8b7332"/><stop offset="1" style="stop-color:#8b7332"/></linearGradient><path d="M35.9 39.6c.3.2.8.2 1.1 0 .2-.1.2-.2.2-.4v-1.4c0-.1-.1-.2-.2-.3-.3-.2-.8-.2-1.1 0-.2.1-.2.2-.2.3v1.4c-.1.2 0 .3.2.4" style="fill:url(#SVGID_16_)"/><linearGradient id="SVGID_17_" x1="29.995" x2="30.162" y1="46.764" y2="48.16" gradientTransform="rotate(120 36.017 44.593)" gradientUnits="userSpaceOnUse"><stop offset="0" style="stop-color:#ab7e21"/><stop offset=".516" style="stop-color:#d9ab28"/><stop offset="1" style="stop-color:#b88d22"/></linearGradient><path d="M35.8 38.4c.3.2.9.1 1.2-.1s.3-.4.2-.6v.2c0 .1-.1.3-.2.4-.3.2-.8.2-1.1 0-.2-.1-.2-.2-.2-.3v-.1c-.2.1-.1.3.1.5" style="fill:url(#SVGID_17_)"/><linearGradient id="SVGID_18_" x1="31.123" x2="31.289" y1="46.113" y2="47.509" gradientTransform="rotate(120 36.017 44.593)" gradientUnits="userSpaceOnUse"><stop offset="0" style="stop-color:#ab7e21"/><stop offset=".516" style="stop-color:#d9ab28"/><stop offset="1" style="stop-color:#b88d22"/></linearGradient><path d="M35.8 39.7c.3.2.9.1 1.2-.1s.3-.4.2-.6v.2c0 .1-.1.3-.2.4-.3.2-.8.2-1.1 0-.2-.1-.2-.2-.2-.3v-.1c-.2.1-.1.3.1.5" style="fill:url(#SVGID_18_)"/><linearGradient id="SVGID_19_" x1="30.962" x2="31.128" y1="46.206" y2="47.602" gradientTransform="rotate(120 36.017 44.593)" gradientUnits="userSpaceOnUse"><stop offset="0" style="stop-color:#ab7e21"/><stop offset=".516" style="stop-color:#d9ab28"/><stop offset="1" style="stop-color:#b88d22"/></linearGradient><path d="M35.8 39.5c.3.2.9.1 1.2-.1s.3-.4.2-.6v.2c0 .1-.1.3-.2.4-.3.2-.8.2-1.1 0-.2-.1-.2-.2-.2-.3V39c-.2.2-.1.4.1.5" style="fill:url(#SVGID_19_)"/><linearGradient id="SVGID_20_" x1="30.8" x2="30.967" y1="46.299" y2="47.695" gradientTransform="rotate(120 36.017 44.593)" gradientUnits="userSpaceOnUse"><stop offset="0" style="stop-color:#ab7e21"/><stop offset=".516" style="stop-color:#d9ab28"/><stop offset="1" style="stop-color:#b88d22"/></linearGradient><path d="M35.8 39.3c.3.2.9.1 1.2-.1s.3-.4.2-.6v.2c0 .1-.1.3-.2.4-.3.2-.8.2-1.1 0-.2-.1-.2-.2-.2-.3v-.1c-.2.2-.1.4.1.5" style="fill:url(#SVGID_20_)"/><linearGradient id="SVGID_21_" x1="30.64" x2="30.806" y1="46.392" y2="47.788" gradientTransform="rotate(120 36.017 44.593)" gradientUnits="userSpaceOnUse"><stop offset="0" style="stop-color:#ab7e21"/><stop offset=".516" style="stop-color:#d9ab28"/><stop offset="1" style="stop-color:#b88d22"/></linearGradient><path d="M35.8 39.1c.3.2.9.1 1.2-.1s.3-.4.2-.6v.2c0 .1-.1.3-.2.4-.3.2-.8.2-1.1 0-.2-.1-.2-.2-.2-.3v-.1c-.2.2-.1.4.1.5" style="fill:url(#SVGID_21_)"/><linearGradient id="SVGID_22_" x1="30.478" x2="30.645" y1="46.485" y2="47.881" gradientTransform="rotate(120 36.017 44.593)" gradientUnits="userSpaceOnUse"><stop offset="0" style="stop-color:#ab7e21"/><stop offset=".516" style="stop-color:#d9ab28"/><stop offset="1" style="stop-color:#b88d22"/></linearGradient><path d="M35.8 38.9c.3.2.9.1 1.2-.1s.3-.4.2-.6v.2c0 .1-.1.3-.2.4-.3.2-.8.2-1.1 0-.2-.1-.2-.2-.2-.3v-.1c-.2.2-.1.4.1.5" style="fill:url(#SVGID_22_)"/><linearGradient id="SVGID_23_" x1="30.317" x2="30.484" y1="46.578" y2="47.974" gradientTransform="rotate(120 36.017 44.593)" gradientUnits="userSpaceOnUse"><stop offset="0" style="stop-color:#ab7e21"/><stop offset=".516" style="stop-color:#d9ab28"/><stop offset="1" style="stop-color:#b88d22"/></linearGradient><path d="M35.8 38.7c.3.2.9.1 1.2-.1s.3-.4.2-.6v.2c0 .1-.1.3-.2.4-.3.2-.8.2-1.1 0-.2-.1-.2-.2-.2-.3v-.1c-.2.2-.1.4.1.5" style="fill:url(#SVGID_23_)"/><linearGradient id="SVGID_24_" x1="30.156" x2="30.323" y1="46.67" y2="48.067" gradientTransform="rotate(120 36.017 44.593)" gradientUnits="userSpaceOnUse"><stop offset="0" style="stop-color:#ab7e21"/><stop offset=".516" style="stop-color:#d9ab28"/><stop offset="1" style="stop-color:#b88d22"/></linearGradient><path d="M35.8 38.6c.3.2.9.1 1.2-.1s.3-.4.2-.6v.2c0 .1-.1.3-.2.4-.3.2-.8.2-1.1 0-.2-.1-.2-.2-.2-.3V38c-.2.2-.1.4.1.6" style="fill:url(#SVGID_24_)"/><linearGradient id="SVGID_25_" x1="145.997" x2="147.362" y1="-356.388" y2="-356.388" gradientTransform="rotate(150 -64.145 -146.47)skewX(30.001)" gradientUnits="userSpaceOnUse"><stop offset="0" style="stop-color:#ce962b"/><stop offset="1" style="stop-color:#caa523"/></linearGradient><path d="M35.8 38.2c-.3-.2-.3-.5 0-.7s.9-.2 1.2 0 .3.5 0 .7-.8.2-1.2 0" style="fill:url(#SVGID_25_)"/><linearGradient id="SVGID_26_" x1="29.585" x2="30.329" y1="47.02" y2="48.187" gradientTransform="rotate(120 36.017 44.593)" gradientUnits="userSpaceOnUse"><stop offset="0" style="stop-color:#58595b"/><stop offset=".196" style="stop-color:#d0d2d3"/><stop offset=".294" style="stop-color:#f1f1f2"/><stop offset=".73" style="stop-color:#58595b"/><stop offset=".865" style="stop-color:#b3b5b7"/><stop offset=".877" style="stop-color:#bbbdbf"/><stop offset=".994" style="stop-color:#6d6e70"/></linearGradient><path d="M35.9 38.1q-.45-.3 0-.6c.3-.2.8-.2 1.1 0q.45.3 0 .6c-.3.2-.8.2-1.1 0" style="fill:url(#SVGID_26_)"/><linearGradient id="SVGID_27_" x1="29.585" x2="30.329" y1="47.02" y2="48.187" gradientTransform="rotate(120 36.017 44.593)" gradientUnits="userSpaceOnUse"><stop offset="0" style="stop-color:#8d6c00"/><stop offset=".104" style="stop-color:#8d6c00"/><stop offset=".282" style="stop-color:#ce9c0e"/><stop offset=".399" style="stop-color:#795a02"/><stop offset=".442" style="stop-color:#ce962b"/><stop offset=".521" style="stop-color:#6f6324"/><stop offset=".601" style="stop-color:#caa523"/><stop offset=".638" style="stop-color:#ffc609"/><stop offset=".797" style="stop-color:#a0832f"/><stop offset=".89" style="stop-color:#725e26"/><stop offset=".988" style="stop-color:#8b7332"/><stop offset="1" style="stop-color:#8b7332"/></linearGradient><path d="M35.9 38.1q-.45-.3 0-.6c.3-.2.8-.2 1.1 0q.45.3 0 .6c-.3.2-.8.2-1.1 0" style="fill:url(#SVGID_27_)"/><path d="M37 38.1c.1-.1 0-.1 0-.1-.3-.2-.8-.2-1.1 0 0 0-.1 0-.1.1h.1c.3.2.8.2 1.1 0" class="st88"/><linearGradient id="SVGID_28_" x1="30.093" x2="30.168" y1="47.449" y2="47.58" gradientTransform="rotate(120 36.017 44.593)" gradientUnits="userSpaceOnUse"><stop offset="0" style="stop-color:#8d6c00"/><stop offset=".104" style="stop-color:#8d6c00"/><stop offset=".282" style="stop-color:#ce9c0e"/><stop offset=".601" style="stop-color:#caa523"/><stop offset=".797" style="stop-color:#a0832f"/><stop offset=".89" style="stop-color:#725e26"/><stop offset=".988" style="stop-color:#8b7332"/><stop offset="1" style="stop-color:#8b7332"/></linearGradient><path d="M36.5 38.3v-.4h-.1v.4z" style="fill:url(#SVGID_28_)"/><linearGradient id="SVGID_29_" x1="29.909" x2="30.016" y1="47.613" y2="47.613" gradientTransform="rotate(120 36.017 44.593)" gradientUnits="userSpaceOnUse"><stop offset="0" style="stop-color:#58595b"/><stop offset=".196" style="stop-color:#d0d2d3"/><stop offset=".294" style="stop-color:#f1f1f2"/><stop offset=".73" style="stop-color:#58595b"/><stop offset=".865" style="stop-color:#b3b5b7"/><stop offset=".877" style="stop-color:#bbbdbf"/><stop offset=".994" style="stop-color:#6d6e70"/></linearGradient><path d="M36.4 37.9c-.1 0-.1-.1 0 0 0-.1.1-.1.1-.1v.1z" style="fill:url(#SVGID_29_)"/><linearGradient id="SVGID_30_" x1="29.933" x2="29.991" y1="47.545" y2="47.677" gradientTransform="rotate(120 36.017 44.593)" gradientUnits="userSpaceOnUse"><stop offset="0" style="stop-color:#8d6c00"/><stop offset=".104" style="stop-color:#8d6c00"/><stop offset=".282" style="stop-color:#ce9c0e"/><stop offset=".601" style="stop-color:#caa523"/><stop offset=".797" style="stop-color:#a0832f"/><stop offset=".89" style="stop-color:#725e26"/><stop offset=".988" style="stop-color:#8b7332"/><stop offset="1" style="stop-color:#8b7332"/></linearGradient><path d="M36.4 37.9c-.1 0-.1-.1 0 0 0-.1.1-.1.1-.1v.1z" style="fill:url(#SVGID_30_)"/><linearGradient id="SVGID_31_" x1="36.385" x2="36.473" y1="37.812" y2="37.812" gradientUnits="userSpaceOnUse"><stop offset="0" style="stop-color:#ce962b"/><stop offset="1" style="stop-color:#caa523"/></linearGradient><path d="M36.4 37.8q.15 0 0 0" style="fill:url(#SVGID_31_)"/><path d="M29.6 36.8c-.7-.4-.7-1 0-1.4s1.8-.4 2.5 0 .7 1 0 1.4-1.8.4-2.5 0" class="st93"/><path d="M29.8 36.6c-.6-.3-.6-.9 0-1.2s1.5-.3 2.1 0 .6.9 0 1.2c-.6.4-1.5.4-2.1 0" class="st81"/><linearGradient id="SVGID_32_" x1="30.829" x2="30.93" y1="36.21" y2="36.016" gradientUnits="userSpaceOnUse"><stop offset="0" style="stop-color:#a67a1f"/><stop offset="1" style="stop-color:#caa523"/></linearGradient><path d="M29.9 35.4v.3l1.8 1s.1 0 .1-.1l.1-.1z" style="fill:url(#SVGID_32_)"/><linearGradient id="SVGID_33_" x1="30.44" x2="31.327" y1="52.077" y2="54.724" gradientTransform="rotate(120 36.017 44.593)" gradientUnits="userSpaceOnUse"><stop offset="0" style="stop-color:#ce962b"/><stop offset="1" style="stop-color:#caa523"/></linearGradient><path d="M32 36.5c.4-.3.4-.8-.1-1.1s-1.4-.3-1.9-.1z" style="fill:url(#SVGID_33_)"/><linearGradient id="SVGID_34_" x1="31.016" x2="31.904" y1="51.884" y2="54.531" gradientTransform="rotate(120 36.017 44.593)" gradientUnits="userSpaceOnUse"><stop offset="0" style="stop-color:#caa523"/><stop offset="1" style="stop-color:#ce962b"/></linearGradient><path d="m31.7 36.7-2.1-1.2c-.4.3-.4.8.1 1.1.6.3 1.5.4 2 .1" style="fill:url(#SVGID_34_)"/><linearGradient id="SVGID_35_" x1="30.739" x2="31.508" y1="52.737" y2="54.08" gradientTransform="rotate(120 36.017 44.593)" gradientUnits="userSpaceOnUse"><stop offset="0" style="stop-color:#a67a1f"/><stop offset="1" style="stop-color:#caa523"/></linearGradient><path d="M30 35.2v.5l1.6.9v-.5z" style="fill:url(#SVGID_35_)"/><linearGradient id="SVGID_36_" x1="29.376" x2="30.504" y1="54.091" y2="54.091" gradientTransform="rotate(120 36.017 44.593)" gradientUnits="userSpaceOnUse"><stop offset="0" style="stop-color:#58595b"/><stop offset=".196" style="stop-color:#d0d2d3"/><stop offset=".294" style="stop-color:#f1f1f2"/><stop offset=".73" style="stop-color:#58595b"/><stop offset=".865" style="stop-color:#b3b5b7"/><stop offset=".877" style="stop-color:#bbbdbf"/><stop offset=".994" style="stop-color:#6d6e70"/></linearGradient><path d="M30.3 34.9c-.3-.2-.3-.5 0-.7s.8-.2 1.1 0 .3.5 0 .7-.8.2-1.1 0" style="fill:url(#SVGID_36_)"/><linearGradient id="SVGID_37_" x1="30.183" x2="30.952" y1="53.06" y2="54.403" gradientTransform="rotate(120 36.017 44.593)" gradientUnits="userSpaceOnUse"><stop offset="0" style="stop-color:#8d6c00"/><stop offset=".104" style="stop-color:#8d6c00"/><stop offset=".282" style="stop-color:#ce9c0e"/><stop offset=".399" style="stop-color:#795a02"/><stop offset=".442" style="stop-color:#ce962b"/><stop offset=".521" style="stop-color:#6f6324"/><stop offset=".601" style="stop-color:#caa523"/><stop offset=".638" style="stop-color:#ffc609"/><stop offset=".797" style="stop-color:#a0832f"/><stop offset=".89" style="stop-color:#725e26"/><stop offset=".988" style="stop-color:#8b7332"/><stop offset="1" style="stop-color:#8b7332"/></linearGradient><path d="M30.3 36.4c.3.2.8.2 1.1 0 .2-.1.2-.2.2-.4v-1.4c0-.1-.1-.2-.2-.3-.3-.2-.8-.2-1.1 0-.2.1-.2.2-.2.3V36c-.1.1 0 .3.2.4" style="fill:url(#SVGID_37_)"/><linearGradient id="SVGID_38_" x1="29.973" x2="30.14" y1="53.242" y2="54.638" gradientTransform="rotate(120 36.017 44.593)" gradientUnits="userSpaceOnUse"><stop offset="0" style="stop-color:#ab7e21"/><stop offset=".516" style="stop-color:#d9ab28"/><stop offset="1" style="stop-color:#b88d22"/></linearGradient><path d="M30.2 35.1c.3.2.9.1 1.2-.1s.3-.4.2-.6v.2c0 .1-.1.3-.2.4-.3.2-.8.2-1.1 0-.2-.1-.2-.2-.2-.3v-.1c-.2.2-.1.4.1.5" style="fill:url(#SVGID_38_)"/><linearGradient id="SVGID_39_" x1="31.1" x2="31.267" y1="52.591" y2="53.987" gradientTransform="rotate(120 36.017 44.593)" gradientUnits="userSpaceOnUse"><stop offset="0" style="stop-color:#ab7e21"/><stop offset=".516" style="stop-color:#d9ab28"/><stop offset="1" style="stop-color:#b88d22"/></linearGradient><path d="M30.2 36.4c.3.2.9.1 1.2-.1s.3-.4.2-.6v.2c0 .1-.1.3-.2.4-.3.2-.8.2-1.1 0q-.3-.15-.3-.3v-.1c-.1.2 0 .4.2.5" style="fill:url(#SVGID_39_)"/><linearGradient id="SVGID_40_" x1="30.939" x2="31.106" y1="52.684" y2="54.08" gradientTransform="rotate(120 36.017 44.593)" gradientUnits="userSpaceOnUse"><stop offset="0" style="stop-color:#ab7e21"/><stop offset=".516" style="stop-color:#d9ab28"/><stop offset="1" style="stop-color:#b88d22"/></linearGradient><path d="M30.2 36.2c.3.2.9.1 1.2-.1s.3-.4.2-.6v.2c0 .1-.1.3-.2.4-.3.2-.8.2-1.1 0q-.3-.15-.3-.3v-.1c-.1.2 0 .4.2.5" style="fill:url(#SVGID_40_)"/><linearGradient id="SVGID_41_" x1="30.778" x2="30.945" y1="52.777" y2="54.173" gradientTransform="rotate(120 36.017 44.593)" gradientUnits="userSpaceOnUse"><stop offset="0" style="stop-color:#ab7e21"/><stop offset=".516" style="stop-color:#d9ab28"/><stop offset="1" style="stop-color:#b88d22"/></linearGradient><path d="M30.2 36c.3.2.9.1 1.2-.1s.3-.4.2-.6v.2c0 .1-.1.3-.2.4-.3.2-.8.2-1.1 0-.2-.1-.2-.2-.2-.3v-.1c-.2.2-.1.4.1.5" style="fill:url(#SVGID_41_)"/><linearGradient id="SVGID_42_" x1="30.617" x2="30.784" y1="52.87" y2="54.266" gradientTransform="rotate(120 36.017 44.593)" gradientUnits="userSpaceOnUse"><stop offset="0" style="stop-color:#ab7e21"/><stop offset=".516" style="stop-color:#d9ab28"/><stop offset="1" style="stop-color:#b88d22"/></linearGradient><path d="M30.2 35.9c.3.2.9.1 1.2-.1s.3-.4.2-.6v.2c0 .1-.1.3-.2.4-.3.2-.8.2-1.1 0-.2-.1-.2-.2-.2-.3v-.1c-.2.1-.1.3.1.5" style="fill:url(#SVGID_42_)"/><linearGradient id="SVGID_43_" x1="30.456" x2="30.623" y1="52.963" y2="54.359" gradientTransform="rotate(120 36.017 44.593)" gradientUnits="userSpaceOnUse"><stop offset="0" style="stop-color:#ab7e21"/><stop offset=".516" style="stop-color:#d9ab28"/><stop offset="1" style="stop-color:#b88d22"/></linearGradient><path d="M30.2 35.7c.3.2.9.1 1.2-.1s.3-.4.2-.6v.2c0 .1-.1.3-.2.4-.3.2-.8.2-1.1 0-.2-.1-.2-.2-.2-.3v-.1c-.2.1-.1.3.1.5" style="fill:url(#SVGID_43_)"/><linearGradient id="SVGID_44_" x1="30.295" x2="30.462" y1="53.056" y2="54.452" gradientTransform="rotate(120 36.017 44.593)" gradientUnits="userSpaceOnUse"><stop offset="0" style="stop-color:#ab7e21"/><stop offset=".516" style="stop-color:#d9ab28"/><stop offset="1" style="stop-color:#b88d22"/></linearGradient><path d="M30.2 35.5c.3.2.9.1 1.2-.1s.3-.4.2-.6v.2c0 .1-.1.3-.2.4-.3.2-.8.2-1.1 0-.2-.1-.3-.2-.3-.4-.1.2 0 .4.2.5" style="fill:url(#SVGID_44_)"/><linearGradient id="SVGID_45_" x1="30.134" x2="30.301" y1="53.149" y2="54.545" gradientTransform="rotate(120 36.017 44.593)" gradientUnits="userSpaceOnUse"><stop offset="0" style="stop-color:#ab7e21"/><stop offset=".516" style="stop-color:#d9ab28"/><stop offset="1" style="stop-color:#b88d22"/></linearGradient><path d="M30.2 35.3c.3.2.9.1 1.2-.1s.3-.4.2-.6v.2c0 .1-.1.3-.2.4-.3.2-.8.2-1.1 0-.2-.1-.3-.2-.3-.4v-.1c-.1.3 0 .5.2.6" style="fill:url(#SVGID_45_)"/><linearGradient id="SVGID_46_" x1="145.971" x2="147.336" y1="-350.766" y2="-350.766" gradientTransform="rotate(150 -64.145 -146.47)skewX(30.001)" gradientUnits="userSpaceOnUse"><stop offset="0" style="stop-color:#ce962b"/><stop offset="1" style="stop-color:#caa523"/></linearGradient><path d="M30.2 34.9c-.3-.2-.3-.5 0-.7s.9-.2 1.2 0 .3.5 0 .7-.8.2-1.2 0" style="fill:url(#SVGID_46_)"/><linearGradient id="SVGID_47_" x1="29.563" x2="30.306" y1="53.499" y2="54.666" gradientTransform="rotate(120 36.017 44.593)" gradientUnits="userSpaceOnUse"><stop offset="0" style="stop-color:#58595b"/><stop offset=".196" style="stop-color:#d0d2d3"/><stop offset=".294" style="stop-color:#f1f1f2"/><stop offset=".73" style="stop-color:#58595b"/><stop offset=".865" style="stop-color:#b3b5b7"/><stop offset=".877" style="stop-color:#bbbdbf"/><stop offset=".994" style="stop-color:#6d6e70"/></linearGradient><path d="M30.3 34.9q-.45-.3 0-.6c.3-.2.8-.2 1.1 0q.45.3 0 .6c-.3.2-.8.2-1.1 0" style="fill:url(#SVGID_47_)"/><linearGradient id="SVGID_48_" x1="29.563" x2="30.306" y1="53.499" y2="54.666" gradientTransform="rotate(120 36.017 44.593)" gradientUnits="userSpaceOnUse"><stop offset="0" style="stop-color:#8d6c00"/><stop offset=".104" style="stop-color:#8d6c00"/><stop offset=".282" style="stop-color:#ce9c0e"/><stop offset=".399" style="stop-color:#795a02"/><stop offset=".442" style="stop-color:#ce962b"/><stop offset=".521" style="stop-color:#6f6324"/><stop offset=".601" style="stop-color:#caa523"/><stop offset=".638" style="stop-color:#ffc609"/><stop offset=".797" style="stop-color:#a0832f"/><stop offset=".89" style="stop-color:#725e26"/><stop offset=".988" style="stop-color:#8b7332"/><stop offset="1" style="stop-color:#8b7332"/></linearGradient><path d="M30.3 34.9q-.45-.3 0-.6c.3-.2.8-.2 1.1 0q.45.3 0 .6c-.3.2-.8.2-1.1 0" style="fill:url(#SVGID_48_)"/><path d="M31.4 34.9s0-.1 0 0c.1-.1 0-.1 0-.1-.3-.2-.8-.2-1.1 0 0 0-.1 0-.1.1h.1c.3.2.8.2 1.1 0" class="st88"/><linearGradient id="SVGID_49_" x1="30.071" x2="30.146" y1="53.927" y2="54.058" gradientTransform="rotate(120 36.017 44.593)" gradientUnits="userSpaceOnUse"><stop offset="0" style="stop-color:#8d6c00"/><stop offset=".104" style="stop-color:#8d6c00"/><stop offset=".282" style="stop-color:#ce9c0e"/><stop offset=".601" style="stop-color:#caa523"/><stop offset=".797" style="stop-color:#a0832f"/><stop offset=".89" style="stop-color:#725e26"/><stop offset=".988" style="stop-color:#8b7332"/><stop offset="1" style="stop-color:#8b7332"/></linearGradient><path d="M30.9 35v-.4h-.1v.4z" style="fill:url(#SVGID_49_)"/><linearGradient id="SVGID_50_" x1="29.887" x2="29.994" y1="54.091" y2="54.091" gradientTransform="rotate(120 36.017 44.593)" gradientUnits="userSpaceOnUse"><stop offset="0" style="stop-color:#58595b"/><stop offset=".196" style="stop-color:#d0d2d3"/><stop offset=".294" style="stop-color:#f1f1f2"/><stop offset=".73" style="stop-color:#58595b"/><stop offset=".865" style="stop-color:#b3b5b7"/><stop offset=".877" style="stop-color:#bbbdbf"/><stop offset=".994" style="stop-color:#6d6e70"/></linearGradient><path d="M30.8 34.6q-.15 0 0 0c0-.1.1-.1.1-.1v.1z" style="fill:url(#SVGID_50_)"/><linearGradient id="SVGID_51_" x1="29.911" x2="29.968" y1="54.024" y2="54.156" gradientTransform="rotate(120 36.017 44.593)" gradientUnits="userSpaceOnUse"><stop offset="0" style="stop-color:#8d6c00"/><stop offset=".104" style="stop-color:#8d6c00"/><stop offset=".282" style="stop-color:#ce9c0e"/><stop offset=".601" style="stop-color:#caa523"/><stop offset=".797" style="stop-color:#a0832f"/><stop offset=".89" style="stop-color:#725e26"/><stop offset=".988" style="stop-color:#8b7332"/><stop offset="1" style="stop-color:#8b7332"/></linearGradient><path d="M30.8 34.6q-.15 0 0 0c0-.1.1-.1.1-.1v.1z" style="fill:url(#SVGID_51_)"/><linearGradient id="SVGID_52_" x1="30.786" x2="30.873" y1="34.553" y2="34.553" gradientUnits="userSpaceOnUse"><stop offset="0" style="stop-color:#ce962b"/><stop offset="1" style="stop-color:#caa523"/></linearGradient><path d="M30.8 34.6s0-.1 0 0q0-.15 0 0c.1-.1.1 0 0 0" style="fill:url(#SVGID_52_)"/><defs><path id="SVGID_53_" d="M32.6 36c0 .6-.8 1-1.7 1-1 0-1.7-.5-1.7-1v-2c0 .6.8 1 1.7 1 1 0 1.7-.4 1.7-1z"/></defs><clipPath id="SVGID_54_"><use xlink:href="#SVGID_53_" style="overflow:visible"/></clipPath><g style="clip-path:url(#SVGID_54_)"><linearGradient id="SVGID_55_" x1="29.067" x2="32.559" y1="35.356" y2="35.356" gradientUnits="userSpaceOnUse"><stop offset="0" style="stop-color:#c0c1c3"/><stop offset=".521" style="stop-color:#f2f2f2"/><stop offset=".608" style="stop-color:#ededed"/><stop offset=".712" style="stop-color:#dedfdf"/><stop offset=".826" style="stop-color:#c6c7c8"/><stop offset=".946" style="stop-color:#a4a5a8"/><stop offset="1" style="stop-color:#929497"/></linearGradient><path d="M32.6 33.7h-3.5V37h3.5z" style="fill:url(#SVGID_55_)"/><path d="M30.3 33.7h.1v3.4h-.1z" class="st84"/><path d="M30.4 33.7h.1v3.4h-.1zm.2 0h.1v3.4h-.1zm.1 0h.1v3.4h-.1zm.6 0h.1v3.4h-.1zm-.2 0h.1v3.4h-.1zm-.1 0h.1v3.4H31zm-.1 0h.1v3.4h-.1z" class="st84"/></g><linearGradient id="SVGID_56_" x1="29.08" x2="32.559" y1="32.944" y2="32.944" gradientUnits="userSpaceOnUse"><stop offset="0" style="stop-color:#c0c1c3"/><stop offset=".172" style="stop-color:#cdcdcf"/><stop offset=".487" style="stop-color:#eee"/><stop offset=".521" style="stop-color:#f2f2f2"/><stop offset=".856" style="stop-color:#c6c7c8"/><stop offset="1" style="stop-color:#b1b3b5"/></linearGradient><path d="M32.6 34c0 .6-.8 1-1.7 1-1 0-1.7-.5-1.7-1v-3c0 .6.8 1 1.7 1 1 0 1.7-.5 1.7-1z" style="fill:url(#SVGID_56_)"/><radialGradient id="SVGID_57_" cx="30.82" cy="30.936" r="1.754" gradientTransform="matrix(1 0 0 .5799 0 12.997)" gradientUnits="userSpaceOnUse"><stop offset=".636" style="stop-color:#231f20"/><stop offset=".671" style="stop-color:#282526"/><stop offset=".716" style="stop-color:#383536"/><stop offset=".767" style="stop-color:#514f50"/><stop offset=".821" style="stop-color:#757475"/><stop offset=".878" style="stop-color:#a2a2a3"/><stop offset=".932" style="stop-color:#d4d6d7"/></radialGradient><path d="M29.1 30.9c0-.6.8-1 1.7-1 1 0 1.7.4 1.7 1s-.8 1-1.7 1-1.7-.4-1.7-1" style="fill:url(#SVGID_57_)"/><defs><path id="SVGID_58_" d="M38.2 39.1c0 .6-.8 1-1.7 1s-1.7-.5-1.7-1v-2c0 .6.8 1 1.7 1s1.7-.4 1.7-1z"/></defs><clipPath id="SVGID_59_"><use xlink:href="#SVGID_58_" style="overflow:visible"/></clipPath><g style="clip-path:url(#SVGID_59_)"><linearGradient id="SVGID_60_" x1="34.714" x2="38.207" y1="38.538" y2="38.538" gradientUnits="userSpaceOnUse"><stop offset="0" style="stop-color:#c0c1c3"/><stop offset=".521" style="stop-color:#f2f2f2"/><stop offset=".608" style="stop-color:#ededed"/><stop offset=".712" style="stop-color:#dedfdf"/><stop offset=".826" style="stop-color:#c6c7c8"/><stop offset=".946" style="stop-color:#a4a5a8"/><stop offset="1" style="stop-color:#929497"/></linearGradient><path d="M38.2 36.9h-3.5v3.3h3.5z" style="fill:url(#SVGID_60_)"/><path d="M36 36.9h.1v3.4H36zm.1 0h.1v3.4h-.1zm.1 0h.1v3.4h-.1zm.2 0h.1v3.4h-.1zm.5 0h.1v3.4h-.1zm-.1 0h.1v3.4h-.1zm-.2 0h.1v3.4h-.1zm-.1 0h.1v3.4h-.1z" class="st84"/></g><linearGradient id="SVGID_61_" x1="34.728" x2="38.207" y1="36.125" y2="36.125" gradientUnits="userSpaceOnUse"><stop offset="0" style="stop-color:#c0c1c3"/><stop offset=".172" style="stop-color:#cdcdcf"/><stop offset=".487" style="stop-color:#eee"/><stop offset=".521" style="stop-color:#f2f2f2"/><stop offset=".856" style="stop-color:#c6c7c8"/><stop offset="1" style="stop-color:#b1b3b5"/></linearGradient><path d="M38.2 37.1c0 .6-.8 1-1.7 1s-1.7-.5-1.7-1v-3c0 .6.8 1 1.7 1 1 0 1.7-.5 1.7-1z" style="fill:url(#SVGID_61_)"/><radialGradient id="SVGID_62_" cx="36.467" cy="34.118" r="1.754" gradientTransform="matrix(1 0 0 .5799 0 14.333)" gradientUnits="userSpaceOnUse"><stop offset=".636" style="stop-color:#231f20"/><stop offset=".671" style="stop-color:#282526"/><stop offset=".716" style="stop-color:#383536"/><stop offset=".767" style="stop-color:#514f50"/><stop offset=".821" style="stop-color:#757475"/><stop offset=".878" style="stop-color:#a2a2a3"/><stop offset=".932" style="stop-color:#d4d6d7"/></radialGradient><path d="M34.7 34.1c0-.6.8-1 1.7-1s1.7.4 1.7 1-.8 1-1.7 1-1.7-.4-1.7-1" style="fill:url(#SVGID_62_)"/><linearGradient id="SVGID_63_" x1="35.61" x2="37.389" y1="29.615" y2="29.615" gradientTransform="matrix(1 .3991 0 1 0 -10.003)" gradientUnits="userSpaceOnUse"><stop offset="0" style="stop-color:#a8a9ab"/><stop offset=".014" style="stop-color:#b6b7b8"/><stop offset=".042" style="stop-color:#cbcbcd"/><stop offset=".069" style="stop-color:#d8d8d9"/><stop offset=".094" style="stop-color:#dcdcdd"/><stop offset=".147" style="stop-color:#d6d6d7"/><stop offset=".186" style="stop-color:#dededf"/><stop offset=".32" style="stop-color:#f6f6f6"/><stop offset=".402" style="stop-color:#fff"/><stop offset=".425" style="stop-color:#f0f0f1"/><stop offset=".441" style="stop-color:#e4e4e5"/><stop offset=".525" style="stop-color:#e2e2e3"/><stop offset=".563" style="stop-color:#dbdcdd"/><stop offset=".573" style="stop-color:#e0e1e2"/><stop offset=".586" style="stop-color:#eeeff0"/><stop offset=".591" style="stop-color:#f6f7f8"/><stop offset=".657" style="stop-color:#fbfbfc"/><stop offset=".686" style="stop-color:#fff"/><stop offset=".752" style="stop-color:#fbfbfb"/><stop offset=".823" style="stop-color:#eeeded"/><stop offset=".829" style="stop-color:#edecec"/><stop offset=".928" style="stop-color:#f1f1f1"/><stop offset=".945" style="stop-color:#e9e9e9"/><stop offset=".971" style="stop-color:#d2d3d4"/><stop offset="1" style="stop-color:#b1b3b4"/></linearGradient><path d="M37.4 34.8v-1.2l-1.8-.6v1.7s.8.5 1.8.1" style="fill:url(#SVGID_63_)"/><linearGradient id="SVGID_64_" x1="241.668" x2="241.668" y1="-34.055" y2="-34.824" gradientTransform="matrix(.7071 .9893 -.7071 .4249 -155.122 -193.653)" gradientUnits="userSpaceOnUse"><stop offset="0" style="stop-color:#f1f2f2;stop-opacity:0"/><stop offset="1" style="stop-color:#f1f2f2;stop-opacity:.85"/></linearGradient><path d="m40.5 30.8-.3-.4c-.4-.6-1-.8-1.3-.6l1.7 2.3c.3-.1.3-.7-.1-1.3" style="opacity:.65;fill:url(#SVGID_64_)"/><linearGradient id="SVGID_65_" x1="240.231" x2="243.053" y1="-32.578" y2="-32.578" gradientTransform="matrix(.7071 .9893 -.7071 .4249 -155.122 -193.653)" gradientUnits="userSpaceOnUse"><stop offset="0" style="stop-color:#bfc0c2"/><stop offset=".19" style="stop-color:#d5d6d7"/><stop offset=".418" style="stop-color:#eaebeb"/><stop offset=".569" style="stop-color:#f2f2f2"/><stop offset=".664" style="stop-color:#ebebeb"/><stop offset=".802" style="stop-color:#d8d9d9"/><stop offset=".964" style="stop-color:#b9bbbc"/><stop offset="1" style="stop-color:#b1b3b4"/></linearGradient><path d="M42.3 31.5c.2-.1.3-1.3-.1-1.8l-.7-.6c-.4-.6-1.1-.5-1.4-.3-.2.1-5.5 3.3-5.5 3.3-.1 0-.1.2 0 .3l.9 1.3c.4.6 1.1.8 1.5.6l1.2-.7.4.1c-.1 0 3.4-2.1 3.7-2.2" style="fill:url(#SVGID_65_)"/><path d="m39.2 33.4-2-2.8v-.1l2 2.8z" class="st147"/><linearGradient id="SVGID_66_" x1="46.513" x2="47.971" y1="17.044" y2="18.501" gradientTransform="matrix(1 .3991 0 1 0 -10.003)" gradientUnits="userSpaceOnUse"><stop offset="0" style="stop-color:#bfc0c2"/><stop offset=".073" style="stop-color:#cdced0"/><stop offset=".206" style="stop-color:#e2e3e3"/><stop offset=".339" style="stop-color:#eeefef"/><stop offset=".469" style="stop-color:#f2f3f3"/><stop offset=".596" style="stop-color:#ebecec"/><stop offset=".786" style="stop-color:#d6d7d8"/><stop offset="1" style="stop-color:#b7b8ba"/></linearGradient><path d="M40.9 28.8s.2.5-.2.8l-2.1 1.3c-.1.1-.1.1-.1.3s0 .4.2.6c.3.4.7.7.9.5.2-.1 2.1-1.3 2.1-1.3s.5-.2.8-.1c.5-.3 13.1-7.9 13.1-7.9s.6-1 .1-1.7-1.4-.7-1.9-.3c-.6.4-12.9 7.8-12.9 7.8" style="fill:url(#SVGID_66_)"/><linearGradient id="SVGID_67_" x1="55.993" x2="38.263" y1="8.902" y2="26.633" gradientTransform="matrix(1 .3991 0 1 0 -10.003)" gradientUnits="userSpaceOnUse"><stop offset=".94" style="stop-color:#221f1f;stop-opacity:0"/><stop offset="1" style="stop-color:#221f1f;stop-opacity:.5"/></linearGradient><path d="M40.9 28.8s.2.5-.2.8l-2.1 1.3c-.1.1-.1.1-.1.3s0 .4.2.6c.3.4.7.7.9.5.2-.1 2.1-1.3 2.1-1.3s.5-.2.8-.1c.5-.3 13.1-7.9 13.1-7.9s.6-1 .1-1.7-1.4-.7-1.9-.3c-.6.4-12.9 7.8-12.9 7.8" style="opacity:.65;fill:url(#SVGID_67_)"/><radialGradient id="SVGID_68_" cx="36.525" cy="28.463" r=".286" gradientTransform="matrix(1 .3991 0 1 0 -10.003)" gradientUnits="userSpaceOnUse"><stop offset=".36" style="stop-color:#f2f3f3"/><stop offset=".513" style="stop-color:#ebecec"/><stop offset=".743" style="stop-color:#d6d7d8"/><stop offset="1" style="stop-color:#b7b8ba"/></radialGradient><path d="M36.8 33.1c0 .1-.1.2-.2.1s-.2-.2-.2-.3.1-.2.2-.1c.1 0 .2.2.2.3" style="fill:url(#SVGID_68_)"/><path d="m40.4 31.4.4-.2c-.2-.3-.3-.2-.4-.2l-.4.2h-.1c.2.2.3.2.5.2m-.2-.9v-.1l.1.1zm0 .1v-.1l.1.1zm-.1 0v-.1l.1.1zm-.1 0v-.1h.1zm.2-.3h-.1l.1-.1z" class="st151"/><path d="m39.9 30.5-.1.1v.1l.2-.1v.1l-.3.2c-.2.1-.1.3-.1.3-.2-.3-.2-.6 0-.7l.4-.2v.1z" class="st151"/><path d="M39.9 31.1c-.1-.1-.1-.1-.1-.2-.1.1 0 .2 0 .3.2.3.4.3.6.2-.2.1-.4 0-.5-.3m.2-.6v-.1h.1v.1z" class="st151"/><path d="m40.4 31.4.4-.2c-.2-.3-.3-.2-.4-.2l-.4.2h-.1c.2.2.3.2.5.2m-.2-.9v-.1l.1.1zm0 .1v-.1l.1.1zm-.1 0v-.1l.1.1zm-.1 0v-.1h.1zm.2-.3h-.1l.1-.1z" class="st152"/><path d="m39.9 30.5-.1.1v.1l.2-.1v.1l-.3.2c-.2.1-.1.3-.1.3-.2-.3-.2-.6 0-.7l.4-.2v.1z" class="st152"/><path d="M39.9 31.1c-.1-.1-.1-.1-.1-.2-.1.1 0 .2 0 .3.2.3.4.3.6.2-.2.1-.4 0-.5-.3m.2-.6v-.1h.1v.1z" class="st152"/><path d="m40.3 31.4.4-.2c-.2-.3-.3-.2-.4-.2l-.3.2h-.1c.2.2.3.3.4.2m-.1-.8v-.1zm0 .1-.1-.1h.1zm-.1-.1H40l.1-.1zm-.1 0-.1-.1h.1zm.1-.2v-.1h.1z" class="st151"/><path d="m39.9 30.6-.1.1v.1l.2-.1v.1l-.3.2c-.2.1-.1.3-.1.3-.2-.3-.2-.6 0-.7l.4-.2v.1z" class="st151"/><path d="M39.8 31.2c-.1-.1-.1-.1-.1-.2-.1.1 0 .2 0 .3.2.3.4.3.6.2-.1 0-.3-.1-.5-.3m.3-.7v-.1l.1.1z" class="st151"/><g class="st153"><path d="m40.3 31.4.4-.2c-.2-.3-.3-.2-.4-.2l-.3.2h-.1c.2.2.3.3.4.2m-.1-.8v-.1zm0 .1-.1-.1h.1zm-.1-.1H40l.1-.1zm-.1 0-.1-.1h.1zm.1-.2v-.1h.1z" class="st154"/><path d="m39.9 30.6-.1.1v.1l.2-.1v.1l-.3.2c-.2.1-.1.3-.1.3-.2-.3-.2-.6 0-.7l.4-.2v.1z" class="st154"/><path d="M39.8 31.2c-.1-.1-.1-.1-.1-.2-.1.1 0 .2 0 .3.2.3.4.3.6.2-.1 0-.3-.1-.5-.3m.3-.7v-.1l.1.1z" class="st154"/></g><path d="m40.4 31.4.4-.2c-.2-.3-.3-.2-.4-.2l-.4.2h-.1c.2.2.3.2.5.2m-.2-.9v-.1l.1.1zm0 .1v-.1zm-.1 0v-.1zm-.1 0-.1-.1h.1zm.1-.3v-.1l.1.1z" class="st155"/><path d="m39.9 30.6-.1.1v.1l.2-.1v.1l-.3.2c-.2.1-.1.3-.1.3-.2-.3-.2-.6 0-.7l.4-.2v.1z" class="st155"/><path d="M39.8 31.1c-.1-.1-.1-.1-.1-.2-.1.1 0 .2 0 .3.2.3.4.3.6.2-.1.1-.3 0-.5-.3m.3-.6v-.1l.1.1z" class="st155"/><linearGradient id="SVGID_69_" x1="29.754" x2="31.533" y1="28.701" y2="28.701" gradientTransform="matrix(1 .3991 0 1 0 -10.003)" gradientUnits="userSpaceOnUse"><stop offset="0" style="stop-color:#a8a9ab"/><stop offset=".014" style="stop-color:#b6b7b8"/><stop offset=".042" style="stop-color:#cbcbcd"/><stop offset=".069" style="stop-color:#d8d8d9"/><stop offset=".094" style="stop-color:#dcdcdd"/><stop offset=".147" style="stop-color:#d6d6d7"/><stop offset=".186" style="stop-color:#dededf"/><stop offset=".32" style="stop-color:#f6f6f6"/><stop offset=".402" style="stop-color:#fff"/><stop offset=".425" style="stop-color:#f0f0f1"/><stop offset=".441" style="stop-color:#e4e4e5"/><stop offset=".525" style="stop-color:#e2e2e3"/><stop offset=".563" style="stop-color:#dbdcdd"/><stop offset=".573" style="stop-color:#e0e1e2"/><stop offset=".586" style="stop-color:#eeeff0"/><stop offset=".591" style="stop-color:#f6f7f8"/><stop offset=".657" style="stop-color:#fbfbfc"/><stop offset=".686" style="stop-color:#fff"/><stop offset=".752" style="stop-color:#fbfbfb"/><stop offset=".823" style="stop-color:#eeeded"/><stop offset=".829" style="stop-color:#edecec"/><stop offset=".928" style="stop-color:#f1f1f1"/><stop offset=".945" style="stop-color:#e9e9e9"/><stop offset=".971" style="stop-color:#d2d3d4"/><stop offset="1" style="stop-color:#b1b3b4"/></linearGradient><path d="M31.5 31.6v-1.2l-1.8-.7v1.7c.1 0 .8.5 1.8.2" style="fill:url(#SVGID_69_)"/><linearGradient id="SVGID_70_" x1="30.861" x2="32.049" y1="30.814" y2="30.814" gradientUnits="userSpaceOnUse"><stop offset="0" style="stop-color:#bfc0c2"/><stop offset=".411" style="stop-color:#9fa0a2"/><stop offset=".766" style="stop-color:#8a8b8d"/><stop offset="1" style="stop-color:#828486"/></linearGradient><path d="M32 30v.8c0 1-1.2.8-1.2.8v-1.2s.2-.6 1-.6" style="fill:url(#SVGID_70_)"/><linearGradient id="SVGID_71_" x1="134.707" x2="134.707" y1="125.858" y2="125.089" gradientTransform="matrix(-1.0187 .664 .5039 .6532 102.239 -145.147)" gradientUnits="userSpaceOnUse"><stop offset="0" style="stop-color:#f1f2f2;stop-opacity:0"/><stop offset="1" style="stop-color:#f1f2f2;stop-opacity:.85"/></linearGradient><path d="m27.8 26.1.4-.3c.6-.4 1.2-.4 1.4-.1l-2.4 1.6c-.1-.2.1-.8.6-1.2" style="opacity:.65;fill:url(#SVGID_71_)"/><linearGradient id="SVGID_72_" x1="133.27" x2="136.092" y1="127.334" y2="127.334" gradientTransform="matrix(-1.0187 .664 .5039 .6532 102.239 -145.147)" gradientUnits="userSpaceOnUse"><stop offset="0" style="stop-color:#bfc0c2"/><stop offset=".19" style="stop-color:#d5d6d7"/><stop offset=".418" style="stop-color:#eaebeb"/><stop offset=".569" style="stop-color:#f2f2f2"/><stop offset=".664" style="stop-color:#ebebeb"/><stop offset=".802" style="stop-color:#d8d9d9"/><stop offset=".964" style="stop-color:#b9bbbc"/><stop offset="1" style="stop-color:#b1b3b4"/></linearGradient><path d="M26 26.1c-.2-.2.2-1.3.7-1.7l.8-.3c.6-.4 1.2 0 1.4.2s3.9 5.1 3.9 5.1c.1.1 0 .2-.1.3l-1.3.8c-.6.4-1.3.4-1.6 0l-.9-1h-.4c.2.1-2.3-3.1-2.5-3.4" style="fill:url(#SVGID_72_)"/><path d="m28.2 29 2.9-1.9H31l-2.9 1.8z" class="st147"/><linearGradient id="SVGID_73_" x1="-140.531" x2="-139.052" y1="52.78" y2="54.259" gradientTransform="matrix(-1.0767 .00769 -.364 .9314 -109.092 -30.564)" gradientUnits="userSpaceOnUse"><stop offset="0" style="stop-color:#bfc0c2"/><stop offset=".073" style="stop-color:#cdced0"/><stop offset=".206" style="stop-color:#e2e3e3"/><stop offset=".339" style="stop-color:#eeefef"/><stop offset=".469" style="stop-color:#f2f3f3"/><stop offset=".596" style="stop-color:#ebecec"/><stop offset=".786" style="stop-color:#d6d7d8"/><stop offset="1" style="stop-color:#b7b8ba"/></linearGradient><path d="M28.3 24.1s-.4.4-.1.8l1.5 2q.15.15 0 .3c-.1.2-.2.4-.4.5-.4.3-.9.4-1 .2s-1.5-2-1.5-2-.4-.4-.7-.4c-.4-.5-11.7-15.3-11.7-15.3s-.3-1.2.4-1.6 1.5-.1 1.9.4 11.6 15.1 11.6 15.1" style="fill:url(#SVGID_73_)"/><linearGradient id="SVGID_74_" x1="-129.314" x2="-150.52" y1="42.921" y2="64.127" gradientTransform="matrix(-1.0767 .00769 -.364 .9314 -109.092 -30.564)" gradientUnits="userSpaceOnUse"><stop offset=".94" style="stop-color:#221f1f;stop-opacity:0"/><stop offset="1" style="stop-color:#221f1f;stop-opacity:.5"/></linearGradient><path d="M28.3 24.1s-.4.4-.1.8l1.5 2q.15.15 0 .3c-.1.2-.2.4-.4.5-.4.3-.9.4-1 .2s-1.5-2-1.5-2-.4-.4-.7-.4c-.4-.5-11.7-15.3-11.7-15.3s-.3-1.2.4-1.6 1.5-.1 1.9.4 11.6 15.1 11.6 15.1" style="opacity:.65;fill:url(#SVGID_74_)"/><radialGradient id="SVGID_75_" cx="-152.183" cy="65.905" r=".286" gradientTransform="matrix(-1.0767 .00769 -.364 .9314 -109.092 -30.564)" gradientUnits="userSpaceOnUse"><stop offset=".36" style="stop-color:#f2f3f3"/><stop offset=".513" style="stop-color:#ebecec"/><stop offset=".743" style="stop-color:#d6d7d8"/><stop offset="1" style="stop-color:#b7b8ba"/></radialGradient><path d="M30.5 29.7c0 .1 0 .2.2.2s.3-.1.4-.2c0-.1 0-.2-.2-.2-.2-.1-.4 0-.4.2" style="fill:url(#SVGID_75_)"/><path d="m27.8 26.7-.3-.4c.3-.2.4-.1.4-.1l.3.4.1.1c-.2.1-.4.1-.5 0m.5-.7v-.1h-.1zm-.1.1.1-.1h-.1zm.1 0 .1-.1h-.1z" class="st151"/><path d="M28.5 26.1V26h-.1zm-.1-.3h.1l-.1-.1z" class="st151"/><path d="M28.5 26.1v.1h-.1l-.1-.2h-.1l.2.3c.1.1 0 .3 0 .3q.45-.3.3-.6l-.2-.3h-.1z" class="st151"/><path d="m28.4 26.7.2-.2v.2c-.3.2-.5.2-.7 0 .1.2.3.1.5 0m-.1-.7.1-.1h-.1z" class="st151"/><path d="m27.8 26.7-.3-.4c.3-.2.4-.1.4-.1l.3.4.1.1c-.2.1-.4.1-.5 0m.5-.7v-.1h-.1zm-.1.1.1-.1h-.1zm.1 0 .1-.1h-.1z" class="st152"/><path d="M28.5 26.1V26h-.1zm-.1-.3h.1l-.1-.1z" class="st152"/><path d="M28.5 26.1v.1h-.1l-.1-.2h-.1l.2.3c.1.1 0 .3 0 .3q.45-.3.3-.6l-.2-.3h-.1z" class="st152"/><path d="m28.4 26.7.2-.2v.2c-.3.2-.5.2-.7 0 .1.2.3.1.5 0m-.1-.7.1-.1h-.1z" class="st152"/><path d="m27.8 26.8-.3-.4c.3-.2.4-.1.4-.1l.3.4.1.1zm.4-.8h.1l-.1-.1zm0 .1h.1l-.1-.1zm.1 0h.1l-.1-.1z" class="st151"/><path d="M28.4 26.1h.1l-.1-.1zm0-.3h-.1z" class="st151"/><path d="M28.5 26.1v.1h-.1l-.1-.2h-.1l.2.3c.1.1 0 .3 0 .3q.45-.3.3-.6l-.2-.3h-.1z" class="st151"/><path d="m28.3 26.7.2-.2v.2c-.3.2-.5.2-.7 0 .1.2.3.2.5 0m0-.7h.1l-.1-.1z" class="st151"/><g class="st153"><path d="m27.8 26.8-.3-.4c.3-.2.4-.1.4-.1l.3.4.1.1zm.4-.8h.1l-.1-.1zm0 .1h.1l-.1-.1zm.1 0h.1l-.1-.1z" class="st154"/><path d="M28.4 26.1h.1l-.1-.1zm0-.3h-.1z" class="st154"/><path d="M28.5 26.1v.1h-.1l-.1-.2h-.1l.2.3c.1.1 0 .3 0 .3q.45-.3.3-.6l-.2-.3h-.1z" class="st154"/><path d="m28.3 26.7.2-.2v.2c-.3.2-.5.2-.7 0 .1.2.3.2.5 0m0-.7h.1l-.1-.1z" class="st154"/></g><path d="m27.8 26.7-.3-.4c.3-.2.4-.1.4-.1l.3.4.1.1c-.2.1-.4.1-.5 0m.4-.7.1-.1h-.1zm0 .1.1-.1h-.1zm.1 0 .1-.1h-.1zm.1 0h.1V26zm0-.3v-.1z" class="st155"/><path d="M28.5 26.1v.1h-.1l-.1-.2h-.1l.2.3c.1.1 0 .3 0 .3q.45-.3.3-.6l-.2-.3h-.1z" class="st155"/><path d="m28.4 26.7.2-.2v.2c-.3.2-.5.2-.7 0 0 .2.2.1.5 0m-.1-.7.1-.1h-.1z" class="st155"/><linearGradient id="SVGID_76_" x1="36.718" x2="37.906" y1="34.354" y2="34.354" gradientUnits="userSpaceOnUse"><stop offset="0" style="stop-color:#bfc0c2"/><stop offset=".411" style="stop-color:#9fa0a2"/><stop offset=".766" style="stop-color:#8a8b8d"/><stop offset="1" style="stop-color:#828486"/></linearGradient><path d="M36.7 34.3v.6s1 .1 1.2-.8v-.3z" style="fill:url(#SVGID_76_)"/><path d="m31 30.5 1-.4c0-.1-.3-.3-1 .4m0 0-.3.6s0 .2-.3 0c0 0 .3-.4.6-.6" style="fill:#e6e7e8"/></g></switch></svg>