<svg xmlns="http://www.w3.org/2000/svg" viewBox="0 0 96 96" role="img" aria-labelledby="generateCurlShellIconTitle">
  <title id="generateCurlShellIconTitle">cURL Command Generator</title>
  <defs>
    <linearGradient id="generateCurlShellGradient" x1="14" y1="12" x2="82" y2="84" gradientUnits="userSpaceOnUse">
      <stop offset="0" stop-color="#14b8a6"/>
      <stop offset="1" stop-color="#0f766e"/>
    </linearGradient>
  </defs>
  <rect x="10" y="16" width="76" height="54" rx="10" fill="url(#generateCurlShellGradient)"/>
  <rect x="16" y="24" width="64" height="36" rx="5" fill="#042f2e" opacity=".84"/>
  <path d="M25 36l8 7-8 7" fill="none" stroke="#ccfbf1" stroke-width="5" stroke-linecap="round" stroke-linejoin="round"/>
  <path d="M41 50h12" fill="none" stroke="#ccfbf1" stroke-width="5" stroke-linecap="round"/>
  <circle cx="65" cy="42" r="11" fill="none" stroke="#99f6e4" stroke-width="4"/>
  <path d="M54 42h22M65 31c3 3 5 7 5 11s-2 8-5 11M65 31c-3 3-5 7-5 11s2 8 5 11" fill="none" stroke="#99f6e4" stroke-width="3" stroke-linecap="round"/>
  <path d="M28 78h40M38 70v8M58 70v8" fill="none" stroke="#0f766e" stroke-width="6" stroke-linecap="round"/>
</svg>
